<svg width="144" height="44" viewBox="0 0 144 44" fill="none" xmlns="http://www.w3.org/2000/svg">
<path fill-rule="evenodd" clip-rule="evenodd" d="M31.7932 11.7514C29.1574 9.74938 25.8894 8.69571 22.6214 8.69571C14.3985 8.69571 7.75704 15.0177 7.75704 22.9203C7.75704 30.8228 14.3985 37.1449 22.6214 37.1449C25.9948 37.0395 29.263 35.9858 31.8982 33.9839L34.1121 37.1449C30.7385 39.5683 26.7328 40.9381 22.6214 40.9381C12.1847 40.9381 3.75098 32.8248 3.75098 22.8149C3.75098 12.805 12.1847 4.69177 22.6214 4.69177C26.7328 4.69177 30.7385 5.95618 34.1121 8.37964L31.7932 11.7514ZM24.731 21.8666L19.3546 20.7076C19.3546 20.7076 29.9202 14.0696 30.3084 13.666C30.1113 14.1918 27.8937 26.0813 27.8937 26.0813L24.731 21.8666ZM30.3182 13.648C30.316 13.648 30.3127 13.6541 30.3084 13.666C30.3171 13.6565 30.3209 13.6504 30.3182 13.648ZM55.6182 8.16898C56.883 8.16898 58.1484 8.59041 59.0968 9.43337L60.3622 7.95822C59.0968 6.79919 57.41 6.16698 55.6182 6.27235C51.8227 6.27235 48.7655 9.32801 48.7655 13.1212C48.7655 16.9144 51.8227 20.0755 55.6182 20.0755C57.41 20.1808 59.0968 19.5486 60.3622 18.3896L59.0968 17.0198C58.2534 17.7574 57.1993 18.2842 56.0396 18.2842C53.2987 18.3896 50.8742 16.1769 50.7686 13.4373C50.6635 10.6977 52.8773 8.27434 55.6182 8.16898ZM75.3325 13.2265C75.2268 17.0197 72.1702 19.97 68.3746 19.97C64.5797 19.8647 61.6275 16.809 61.6275 13.0158C61.7332 9.32796 64.6847 6.27228 68.4803 6.27228C72.2752 6.37764 75.3325 9.43331 75.3325 13.2265ZM73.3293 13.2265C73.2243 10.5923 71.0104 8.485 68.269 8.59035C65.6338 8.69571 63.5256 10.9084 63.6306 13.648C63.7363 16.2822 65.8445 18.2842 68.4803 18.2842C71.2211 18.1788 73.3293 15.966 73.3293 13.2265ZM80.1805 19.8646V9.53861L84.9244 17.2304L89.8791 9.53861V19.8646H91.7772V6.58837H89.8791L85.1357 14.1748L80.3917 6.58837H78.283V19.8646H80.1805ZM95.7828 6.58837H100.421C103.478 6.58837 105.482 8.27423 105.482 10.803C105.482 13.3319 103.478 15.0177 100.316 15.0177H97.5753V19.8646H95.6778V6.58837H95.7828ZM97.5753 8.27423V13.3319H100.527C102.319 13.3319 103.478 12.2782 103.478 10.803C103.478 9.3279 102.319 8.27423 100.527 8.27423H97.5753ZM108.539 16.4929H114.864L116.234 19.8646H118.343L112.861 6.58837H110.647L105.165 19.8646H107.168L108.539 16.4929ZM109.066 14.807L111.596 8.5903L114.02 14.807H109.066ZM127.725 9.64397C126.882 8.5903 125.722 8.06346 124.457 8.06346C122.876 8.06346 121.822 8.80106 121.822 9.85474C121.822 11.1557 123.257 11.6166 124.861 12.132C126.895 12.7853 129.201 13.5261 129.201 16.1768C129.201 18.4948 127.304 20.0753 124.352 20.0753C121.822 20.0753 120.241 19.127 119.292 17.8626L120.663 16.5982C121.506 17.7573 122.876 18.3895 124.352 18.3895C126.144 18.3895 127.198 17.6519 127.198 16.3875C127.198 14.8969 125.662 14.3938 123.991 13.8466C122 13.1948 119.819 12.4806 119.819 9.96009C119.819 7.85275 121.717 6.37761 124.457 6.37761C126.25 6.27224 127.936 7.11515 128.991 8.37959L127.725 9.64397ZM136.159 8.06346C137.425 8.06346 138.584 8.5903 139.427 9.64397L140.693 8.37959C139.638 7.11515 137.952 6.27224 136.159 6.37761C133.418 6.37761 131.521 7.85275 131.521 9.96009C131.521 12.4806 133.702 13.1948 135.693 13.8466C137.364 14.3938 138.9 14.8969 138.9 16.3875C138.9 17.6519 137.846 18.3895 136.054 18.3895C134.578 18.3895 133.208 17.7573 132.364 16.5982L130.994 17.8626C131.942 19.127 133.524 20.0753 136.054 20.0753C139.006 20.0753 140.903 18.4948 140.903 16.1768C140.903 13.5261 138.597 12.7853 136.563 12.132C134.959 11.6166 133.524 11.1557 133.524 9.85474C133.524 8.80106 134.578 8.06346 136.159 8.06346ZM51.4023 29.453V39.779H49.5049V26.5027H51.6131L56.357 34.0892L61.101 26.5027H62.9985V39.779H61.101V29.453L56.1463 37.1449L51.4023 29.453ZM68.7966 26.3975H66.8991V39.6738H68.7966V26.3975ZM74.3829 29.4532V39.6738H72.4854V26.3975H74.4885L81.8678 36.7235V26.3975H83.7652V39.6738H81.7621L74.3829 29.4532ZM89.3537 26.3975H87.4562V39.6738H89.3537V26.3975ZM94.94 29.4532V39.6738H93.0425V26.3975H95.0456L102.425 36.7235V26.3975H104.322V39.6738H102.319L94.94 29.4532ZM107.274 33.0355C107.274 36.8287 110.331 39.9897 114.127 39.9897C115.813 40.0951 117.5 39.5682 118.976 38.7253V33.2462H117.078V37.5662C116.235 37.9877 115.286 38.1985 114.337 38.1985C111.702 38.0931 109.593 36.0911 109.383 33.457C109.172 30.612 111.386 28.294 114.127 28.0832C115.391 28.0832 116.657 28.5047 117.605 29.3476L118.871 27.8725C117.605 26.7135 115.919 26.0813 114.127 26.1866C110.331 26.1866 107.274 29.2423 107.274 33.0355Z" fill="#B0B0B0"/>
</svg>
