<svg width="210" height="39" viewBox="0 0 210 39" fill="none" xmlns="http://www.w3.org/2000/svg">
<path d="M14.532 32.7049C10.5044 36.7413 3.68312 36.7252 1.77812 31.3457C1.40514 30.2925 1.10694 29.2095 0.887611 28.1045C-0.00790486 23.5927 0.451706 18.9161 2.20833 14.6661C3.96494 10.4162 6.93967 6.78363 10.7563 4.22792C14.573 1.67221 19.0602 0.308105 23.6505 0.308105C28.2407 0.308106 32.7279 1.67221 36.5445 4.22792C40.3613 6.78363 43.336 10.4162 45.0926 14.6662C46.8492 18.9161 47.3087 23.5927 46.4133 28.1045C46.194 29.2095 45.8958 30.2925 45.5227 31.3457C43.6177 36.7252 36.7965 36.7413 32.7688 32.7049L26.5515 26.4743C25.9576 25.879 26.0189 24.8973 26.1828 24.0717C26.2823 23.5698 26.2312 23.0495 26.0358 22.5767C25.8403 22.1039 25.5095 21.6998 25.0849 21.4155C24.6603 21.1313 24.1611 20.9795 23.6505 20.9795C23.1399 20.9795 22.6407 21.1313 22.2161 21.4155C21.7914 21.6998 21.4605 22.1039 21.2651 22.5767C21.0696 23.0495 21.0185 23.5698 21.1182 24.0717C21.2821 24.8973 21.3433 25.879 20.7493 26.4743L14.532 32.7049Z" fill="#E0E0E0"/>
<path d="M65.7422 27.1209H71.9807V30.8051H60.9797V11.2119H65.7422V27.1209Z" fill="#F2F2F2"/>
<path d="M80.4904 31.0285C78.968 31.0285 77.594 30.7029 76.3685 30.0516C75.1617 29.4004 74.2055 28.47 73.4999 27.2606C72.813 26.0511 72.4695 24.637 72.4695 23.0181C72.4695 21.418 72.8222 20.013 73.5277 18.8036C74.2334 17.5756 75.1988 16.6359 76.4242 15.9847C77.6497 15.3334 79.0237 15.0078 80.5461 15.0078C82.0686 15.0078 83.4426 15.3334 84.668 15.9847C85.8935 16.6359 86.8589 17.5756 87.5644 18.8036C88.27 20.013 88.6228 21.418 88.6228 23.0181C88.6228 24.6183 88.2607 26.0324 87.5367 27.2606C86.8311 28.47 85.8564 29.4004 84.6123 30.0516C83.3869 30.7029 82.0129 31.0285 80.4904 31.0285ZM80.4904 26.8976C81.4002 26.8976 82.1707 26.5628 82.8021 25.8929C83.4519 25.2231 83.7768 24.2649 83.7768 23.0181C83.7768 21.7714 83.4611 20.8132 82.8299 20.1433C82.2171 19.4735 81.4559 19.1385 80.5461 19.1385C79.6178 19.1385 78.8472 19.4735 78.2345 20.1433C77.6218 20.7946 77.3155 21.7528 77.3155 23.0181C77.3155 24.2649 77.6126 25.2231 78.2067 25.8929C78.8195 26.5628 79.5807 26.8976 80.4904 26.8976Z" fill="#F2F2F2"/>
<path d="M96.2171 15.0078C97.3125 15.0078 98.2688 15.2311 99.0858 15.6777C99.9212 16.1242 100.562 16.7104 101.007 17.436V15.2311H105.77V30.7772C105.77 32.21 105.482 33.5033 104.906 34.6568C104.349 35.8291 103.486 36.7594 102.316 37.4478C101.165 38.1364 99.7263 38.4806 97.9996 38.4806C95.6973 38.4806 93.8312 37.9317 92.4016 36.8339C90.972 35.7546 90.1549 34.2847 89.9507 32.4239H94.6575C94.806 33.0194 95.1588 33.4846 95.7159 33.8195C96.2728 34.173 96.9598 34.3498 97.7768 34.3498C98.7609 34.3498 99.5406 34.0614 100.116 33.4846C100.71 32.9264 101.007 32.024 101.007 30.7772V28.5724C100.543 29.2979 99.9027 29.8935 99.0858 30.3586C98.2688 30.8052 97.3125 31.0285 96.2171 31.0285C94.936 31.0285 93.7755 30.7029 92.7358 30.0516C91.696 29.3817 90.8698 28.4421 90.2572 27.2326C89.663 26.0046 89.3659 24.5905 89.3659 22.9902C89.3659 21.39 89.663 19.9852 90.2572 18.7757C90.8698 17.5663 91.696 16.6359 92.7358 15.9847C93.7755 15.3334 94.936 15.0078 96.2171 15.0078ZM101.007 23.0181C101.007 21.8273 100.673 20.8876 100.005 20.1992C99.355 19.5108 98.5565 19.1665 97.6097 19.1665C96.6627 19.1665 95.8551 19.5108 95.1866 20.1992C94.5368 20.8691 94.2119 21.7994 94.2119 22.9902C94.2119 24.1811 94.5368 25.1301 95.1866 25.8371C95.8551 26.5255 96.6627 26.8698 97.6097 26.8698C98.5565 26.8698 99.355 26.5255 100.005 25.8371C100.673 25.1486 101.007 24.209 101.007 23.0181Z" fill="#F2F2F2"/>
<path d="M115.455 31.0285C113.932 31.0285 112.558 30.7029 111.333 30.0516C110.126 29.4004 109.17 28.47 108.464 27.2606C107.777 26.0511 107.434 24.637 107.434 23.0181C107.434 21.418 107.786 20.013 108.492 18.8036C109.198 17.5756 110.163 16.6359 111.388 15.9847C112.614 15.3334 113.988 15.0078 115.51 15.0078C117.033 15.0078 118.407 15.3334 119.632 15.9847C120.858 16.6359 121.823 17.5756 122.529 18.8036C123.234 20.013 123.587 21.418 123.587 23.0181C123.587 24.6183 123.225 26.0324 122.501 27.2606C121.795 28.47 120.82 29.4004 119.576 30.0516C118.351 30.7029 116.977 31.0285 115.455 31.0285ZM115.455 26.8976C116.364 26.8976 117.135 26.5628 117.766 25.8929C118.416 25.2231 118.741 24.2649 118.741 23.0181C118.741 21.7714 118.425 20.8132 117.794 20.1433C117.181 19.4735 116.42 19.1385 115.51 19.1385C114.582 19.1385 113.811 19.4735 113.199 20.1433C112.586 20.7946 112.28 21.7528 112.28 23.0181C112.28 24.2649 112.577 25.2231 113.171 25.8929C113.784 26.5628 114.545 26.8976 115.455 26.8976Z" fill="#F2F2F2"/>
<path d="M127.672 13.6122C126.837 13.6122 126.15 13.3703 125.611 12.8865C125.092 12.3841 124.832 11.7701 124.832 11.0444C124.832 10.3001 125.092 9.6861 125.611 9.20231C126.15 8.69992 126.837 8.44873 127.672 8.44873C128.489 8.44873 129.158 8.69992 129.678 9.20231C130.216 9.6861 130.485 10.3001 130.485 11.0444C130.485 11.7701 130.216 12.3841 129.678 12.8865C129.158 13.3703 128.489 13.6122 127.672 13.6122ZM130.04 15.231V30.8051H125.277V15.231H130.04Z" fill="#F2F2F2"/>
<path d="M137.418 17.436C137.882 16.7104 138.522 16.1242 139.34 15.6777C140.157 15.2311 141.113 15.0078 142.209 15.0078C143.49 15.0078 144.65 15.3334 145.69 15.9847C146.73 16.6359 147.547 17.5663 148.14 18.7757C148.753 19.9852 149.06 21.39 149.06 22.9902C149.06 24.5905 148.753 26.0046 148.14 27.2326C147.547 28.4421 146.73 29.3817 145.69 30.0516C144.65 30.7029 143.49 31.0285 142.209 31.0285C141.131 31.0285 140.176 30.8052 139.34 30.3586C138.522 29.912 137.882 29.3352 137.418 28.6282V38.2294H132.656V15.2311H137.418V17.436ZM144.214 22.9902C144.214 21.7994 143.88 20.8691 143.211 20.1992C142.561 19.5108 141.754 19.1665 140.788 19.1665C139.842 19.1665 139.034 19.5108 138.365 20.1992C137.716 20.8876 137.391 21.8273 137.391 23.0181C137.391 24.209 137.716 25.1486 138.365 25.8371C139.034 26.5255 139.842 26.8698 140.788 26.8698C141.735 26.8698 142.543 26.5255 143.211 25.8371C143.88 25.1301 144.214 24.1811 144.214 22.9902Z" fill="#F2F2F2"/>
<path d="M157.045 31.0285C155.69 31.0285 154.483 30.7959 153.424 30.3308C152.366 29.8655 151.53 29.2329 150.918 28.4327C150.306 27.614 149.962 26.7023 149.887 25.6975H154.595C154.65 26.2371 154.901 26.6743 155.346 27.0093C155.792 27.3442 156.34 27.5117 156.99 27.5117C157.583 27.5117 158.038 27.4001 158.354 27.1768C158.688 26.935 158.855 26.6279 158.855 26.2557C158.855 25.8091 158.623 25.4835 158.159 25.2789C157.695 25.0556 156.943 24.8138 155.903 24.5532C154.789 24.2927 153.861 24.0229 153.118 23.7438C152.376 23.4462 151.735 22.9902 151.197 22.3762C150.658 21.7436 150.389 20.8969 150.389 19.8364C150.389 18.9432 150.631 18.1338 151.113 17.4081C151.614 16.6639 152.338 16.0777 153.285 15.6497C154.251 15.2218 155.393 15.0078 156.711 15.0078C158.66 15.0078 160.192 15.4916 161.306 16.4591C162.439 17.4268 163.089 18.7106 163.256 20.3108H158.855C158.781 19.7712 158.54 19.3433 158.131 19.0269C157.741 18.7106 157.222 18.5524 156.572 18.5524C156.015 18.5524 155.587 18.6641 155.291 18.8874C154.994 19.092 154.845 19.3805 154.845 19.7526C154.845 20.1992 155.077 20.5341 155.541 20.7574C156.024 20.9807 156.766 21.204 157.77 21.4272C158.92 21.7249 159.858 22.0227 160.582 22.3203C161.306 22.5995 161.937 23.0646 162.475 23.7159C163.032 24.3485 163.321 25.2044 163.34 26.2837C163.34 27.1954 163.08 28.0141 162.559 28.7398C162.059 29.4469 161.325 30.0051 160.359 30.4144C159.412 30.8238 158.308 31.0285 157.045 31.0285Z" fill="#F2F2F2"/>
<path d="M180.763 15.231V30.805H176.001V28.6839C175.518 29.3723 174.858 29.9305 174.023 30.3584C173.206 30.7679 172.297 30.9725 171.294 30.9725C170.105 30.9725 169.056 30.712 168.147 30.191C167.236 29.6514 166.531 28.8792 166.031 27.8745C165.529 26.8696 165.278 25.6882 165.278 24.3297V15.231H170.012V23.6878C170.012 24.7298 170.282 25.5392 170.82 26.1161C171.358 26.6928 172.083 26.9813 172.993 26.9813C173.921 26.9813 174.655 26.6928 175.193 26.1161C175.731 25.5392 176.001 24.7298 176.001 23.6878V15.231H180.763Z" fill="#F2F2F2"/>
<path d="M203.178 15.0635C205.108 15.0635 206.641 15.6496 207.774 16.8219C208.924 17.994 209.5 19.6221 209.5 21.7061V30.805H204.766V22.3482C204.766 21.3433 204.496 20.5711 203.958 20.0315C203.437 19.4733 202.714 19.1942 201.785 19.1942C200.857 19.1942 200.123 19.4733 199.585 20.0315C199.066 20.5711 198.806 21.3433 198.806 22.3482V30.805H194.07V22.3482C194.07 21.3433 193.802 20.5711 193.264 20.0315C192.743 19.4733 192.019 19.1942 191.091 19.1942C190.163 19.1942 189.429 19.4733 188.891 20.0315C188.37 20.5711 188.111 21.3433 188.111 22.3482V30.805H183.349V15.2309H188.111V17.1847C188.594 16.5334 189.225 16.0217 190.005 15.6496C190.785 15.2588 191.667 15.0635 192.65 15.0635C193.821 15.0635 194.86 15.3146 195.77 15.817C196.697 16.3194 197.422 17.0358 197.942 17.9662C198.481 17.1102 199.214 16.4124 200.142 15.8729C201.07 15.3333 202.083 15.0635 203.178 15.0635Z" fill="#F2F2F2"/>
</svg>
