<svg width="180" height="43" viewBox="0 0 180 43" fill="none" xmlns="http://www.w3.org/2000/svg">
<path d="M54.9102 30.899H67.5327V27.097H59.3965V12.7764H54.9102V30.899Z" fill="#F1F1F1"/>
<path d="M75.0128 28.3639C73.2132 28.3639 72.2754 26.7925 72.2754 24.4353C72.2754 22.078 73.2132 20.4812 75.0128 20.4812C76.8124 20.4812 77.7755 22.078 77.7755 24.4353C77.7755 26.7925 76.8124 28.3639 75.0128 28.3639ZM75.0381 31.3041C79.2203 31.3041 81.9577 28.3386 81.9577 24.4353C81.9577 20.5319 79.2203 17.5664 75.0381 17.5664C70.8814 17.5664 68.0933 20.5319 68.0933 24.4353C68.0933 28.3386 70.8814 31.3041 75.0381 31.3041Z" fill="#F1F1F1"/>
<path d="M89.1957 35.3853C91.122 35.3853 92.8202 34.9544 93.9608 33.9406C95 33.0027 95.6844 31.5833 95.6844 29.6317V17.9217H91.7303V19.3157H91.6796C90.9193 18.2259 89.7533 17.5415 88.0298 17.5415C84.8108 17.5415 82.5803 20.2282 82.5803 24.0302C82.5803 28.0095 85.2924 30.1893 88.2072 30.1893C89.7787 30.1893 90.7672 29.5556 91.5276 28.6939H91.6289V29.9865C91.6289 31.558 90.8939 32.4705 89.145 32.4705C87.7763 32.4705 87.092 31.8875 86.8638 31.2032H82.8591C83.2647 33.9152 85.6219 35.3853 89.1957 35.3853ZM89.1704 27.1224C87.6242 27.1224 86.6104 25.8551 86.6104 23.9034C86.6104 21.9264 87.6242 20.6591 89.1704 20.6591C90.8939 20.6591 91.8064 22.1292 91.8064 23.8781C91.8064 25.703 90.97 27.1224 89.1704 27.1224Z" fill="#F1F1F1"/>
<path d="M103.814 28.3639C102.014 28.3639 101.077 26.7925 101.077 24.4353C101.077 22.078 102.014 20.4812 103.814 20.4812C105.614 20.4812 106.576 22.078 106.576 24.4353C106.576 26.7925 105.614 28.3639 103.814 28.3639ZM103.839 31.3041C108.021 31.3041 110.758 28.3386 110.758 24.4353C110.758 20.5319 108.021 17.5664 103.839 17.5664C99.6826 17.5664 96.8945 20.5319 96.8945 24.4353C96.8945 28.3386 99.6826 31.3041 103.839 31.3041Z" fill="#F1F1F1"/>
<path d="M111.967 30.899H116.098V17.9217H111.967V30.899ZM111.967 16.1221H116.098V12.7764H111.967V16.1221Z" fill="#F1F1F1"/>
<path d="M117.89 35.1825H122.021V29.5556H122.072C122.883 30.6455 124.075 31.3045 125.747 31.3045C129.144 31.3045 131.4 28.6178 131.4 24.4103C131.4 20.507 129.296 17.5415 125.849 17.5415C124.075 17.5415 122.807 18.3272 121.92 19.4932H121.844V17.9217H117.89V35.1825ZM124.683 28.1109C122.909 28.1109 121.895 26.6662 121.895 24.5624C121.895 22.4587 122.807 20.8619 124.607 20.8619C126.381 20.8619 127.217 22.332 127.217 24.5624C127.217 26.7676 126.254 28.1109 124.683 28.1109Z" fill="#F1F1F1"/>
<path d="M138.125 31.3045C141.522 31.3045 144.031 29.8345 144.031 26.9957C144.031 23.6753 141.344 23.0923 139.063 22.7121C137.416 22.408 135.945 22.2813 135.945 21.3688C135.945 20.5577 136.731 20.1775 137.745 20.1775C138.886 20.1775 139.671 20.5324 139.823 21.6983H143.625C143.423 19.1383 141.446 17.5415 137.77 17.5415C134.703 17.5415 132.169 18.9609 132.169 21.6983C132.169 24.7399 134.577 25.3482 136.833 25.7284C138.556 26.0325 140.128 26.1592 140.128 27.3252C140.128 28.1616 139.342 28.6178 138.1 28.6178C136.731 28.6178 135.869 27.9842 135.717 26.6915H131.814C131.941 29.5556 134.323 31.3045 138.125 31.3045Z" fill="#F1F1F1"/>
<path d="M149.644 31.2794C151.443 31.2794 152.584 30.5697 153.522 29.3024H153.598V30.8992H157.552V17.9219H153.42V25.1709C153.42 26.717 152.559 27.7816 151.139 27.7816C149.821 27.7816 149.188 26.9958 149.188 25.5765V17.9219H145.081V26.4382C145.081 29.3277 146.653 31.2794 149.644 31.2794Z" fill="#F1F1F1"/>
<path d="M159.35 30.899H163.481V23.6246C163.481 22.0785 164.242 20.9886 165.534 20.9886C166.776 20.9886 167.359 21.7997 167.359 23.1937V30.899H171.491V23.6246C171.491 22.0785 172.226 20.9886 173.544 20.9886C174.786 20.9886 175.369 21.7997 175.369 23.1937V30.899H179.5V22.4587C179.5 19.5439 178.03 17.5415 175.09 17.5415C173.417 17.5415 172.023 18.2512 171.009 19.8227H170.958C170.299 18.4286 169.007 17.5415 167.308 17.5415C165.433 17.5415 164.191 18.4286 163.38 19.772H163.304V17.9217H159.35V30.899Z" fill="#F1F1F1"/>
<path fill-rule="evenodd" clip-rule="evenodd" d="M21.9856 42.517C33.6513 42.517 43.1081 33.0601 43.1081 21.3945C43.1081 9.72884 33.6513 0.271973 21.9856 0.271973C10.32 0.271973 0.863098 9.72884 0.863098 21.3945C0.863098 33.0601 10.32 42.517 21.9856 42.517ZM25.2458 16.5918C27.0463 14.7912 27.0463 11.872 25.2458 10.0714C23.4452 8.27084 20.526 8.27084 18.7254 10.0714C16.9249 11.872 16.9249 14.7912 18.7254 16.5918L21.9856 19.852L25.2458 16.5918ZM26.7883 24.6547C28.5889 26.4553 31.5081 26.4553 33.3087 24.6547C35.1092 22.8541 35.1092 19.9349 33.3087 18.1343C31.5081 16.3338 28.5889 16.3338 26.7883 18.1343L23.5282 21.3946L26.7883 24.6547ZM25.2458 32.7176C27.0463 30.917 27.0463 27.9978 25.2458 26.1972L21.9856 22.937L18.7254 26.1972C16.9249 27.9978 16.9249 30.917 18.7254 32.7176C20.526 34.5182 23.4452 34.5182 25.2458 32.7176ZM10.6625 24.6547C8.86197 22.8541 8.86197 19.9349 10.6625 18.1343C12.4631 16.3338 15.3824 16.3338 17.1829 18.1343L20.4431 21.3946L17.1829 24.6547C15.3824 26.4553 12.4631 26.4553 10.6625 24.6547Z" fill="#F1F1F1"/>
</svg>
