<svg width="152" height="44" viewBox="0 0 152 44" fill="none" xmlns="http://www.w3.org/2000/svg">
<g clip-path="url(#clip0_2_1995)">
<path fill-rule="evenodd" clip-rule="evenodd" d="M25.0211 22.1329C25.0284 22.1535 25.0284 22.1767 25.0284 22.217C25.4081 23.4505 25.2183 24.8736 24.269 26.1071L14.1117 39.2004C13.4472 40.0543 12.403 40.6236 11.2639 40.8134H10.6943C9.74505 40.8134 8.79576 40.4339 8.03633 39.8646C7.182 39.2004 6.61243 38.1568 6.42257 37.0182C6.23271 35.8797 6.61243 34.836 7.2769 33.8872L12.1182 27.7201H4.23923C2.62547 27.7201 1.10661 26.7713 0.442084 25.3481V25.2532V25.1583C0.25228 24.7788 0.157324 24.3044 0.0624228 23.83C-0.127435 22.6914 0.25228 21.6478 0.916754 20.699L10.9791 7.70048C11.6436 6.84659 12.6878 6.2773 13.8269 6.08754C14.9661 5.89779 16.0102 6.2773 16.9595 6.94144C18.8581 8.45952 19.1429 11.1162 17.719 13.0137L12.8776 19.2758H20.7566C21.8958 19.2758 22.94 19.6553 23.7944 20.5092C23.7944 20.6041 23.8893 20.699 23.9842 20.7939L24.0791 20.8887L24.1741 20.9836V21.0785C24.269 21.0785 24.269 21.1734 24.269 21.1734C24.3639 21.1734 24.3639 21.2682 24.3639 21.2682C24.4588 21.2682 24.4588 21.3631 24.4588 21.3631C24.5538 21.3631 24.5538 21.458 24.5538 21.458C24.6487 21.458 24.6487 21.5529 24.6487 21.5529C24.7436 21.5529 24.7436 21.6478 24.7436 21.6478V21.7426C24.8385 21.7426 24.8385 21.8375 24.8385 21.8375V21.9324C24.9335 21.9324 24.9335 22.0273 24.9335 22.0273C24.988 22.0818 25.0112 22.1051 25.0211 22.1329ZM22.4653 21.3631C21.9907 20.9836 21.4212 20.7939 20.8516 20.7939C20.0922 20.7939 19.3327 21.0785 18.6682 21.7426L15.3458 26.0122H20.7566C22.1806 26.0122 23.4146 24.7788 23.4146 23.3556V22.8812V22.7863V22.5966V22.5017V22.4068V22.3119C23.3197 22.3119 23.3197 22.217 23.3197 22.217C23.2248 22.217 23.2248 22.1221 23.2248 22.1221C23.1299 22.1221 23.1298 22.0273 23.1298 22.0273L23.0349 21.9324C22.94 21.9324 22.94 21.8375 22.94 21.8375L22.8451 21.7426C22.7789 21.6103 22.6665 21.5242 22.5724 21.452C22.5316 21.4206 22.4941 21.3918 22.4653 21.3631ZM14.1117 7.51072C13.3523 7.60563 12.7827 7.98515 12.3081 8.55443L4.23923 19.086H4.33414H10.9791L16.5798 11.8752C17.0545 11.3059 17.2443 10.5469 17.1494 9.8827C17.0545 9.12366 16.6748 8.55443 16.1052 8.08C15.6305 7.70048 15.061 7.51072 14.4914 7.51072H14.1117ZM1.86604 24.3993C2.0559 24.7788 2.34066 25.0634 2.62547 25.3481C3.85952 26.2969 5.47328 26.1071 6.42257 24.9686L9.65009 20.6041H4.33414C2.91023 20.6041 1.67619 21.8375 1.67619 23.2607C1.67619 23.6402 1.77109 24.0197 1.86604 24.3044V24.3993ZM11.7385 20.699L7.65662 26.0122H13.4472L17.5291 20.7939V20.699H11.7385ZM9.08052 38.6312C10.2197 39.4851 11.9284 39.2954 12.7827 38.1568L20.8516 27.6251H14.2066L8.6059 34.836C8.13123 35.4053 7.94138 36.1643 8.03633 36.8285C8.13123 37.5875 8.51095 38.1568 9.08052 38.6312ZM70.3091 13.3933V21.6478C70.3091 22.7863 69.9296 23.9248 69.0748 24.6839C68.3158 25.4429 67.3662 25.9173 66.2272 25.9173C64.0438 25.9173 62.24 24.0197 62.24 21.6478V13.3933H60.1519V21.6478C60.1519 24.7787 62.3353 27.4354 65.1829 27.9098V36.0694H67.2715V27.9098C68.5052 27.72 69.6443 27.0559 70.5938 26.1071C71.7329 24.8736 72.3024 23.3556 72.3024 21.6478V13.3933H70.3091ZM82.4606 28.0047C78.3787 28.0047 75.1511 24.6839 75.1511 20.699C75.1511 16.714 78.4734 13.3933 82.4606 13.3933C86.5425 13.3933 89.7702 16.714 89.7702 20.699V21.7426H78.8535V19.6553H87.6816C87.2068 17.2833 85.0234 15.3857 82.5554 15.3857C79.6125 15.3857 77.3344 17.7577 77.3344 20.6041C77.3344 23.5453 79.7078 25.8224 82.5554 25.8224C84.3592 25.8224 86.0677 24.8736 87.0173 23.3556L88.8206 24.3993C87.3021 26.7713 85.0235 28.0047 82.4606 28.0047ZM113.881 28.0047C109.799 28.0047 106.572 24.6839 106.572 20.699C106.572 16.714 109.894 13.3933 113.881 13.3933C117.868 13.3933 121.191 16.714 121.191 20.699V21.7426H110.274V19.6553H119.103C118.628 17.2833 116.444 15.3857 113.976 15.3857C111.033 15.3857 108.755 17.7577 108.755 20.6041C108.755 23.5453 111.128 25.8224 113.976 25.8224C115.78 25.8224 117.489 24.8736 118.438 23.3556L120.242 24.3993C118.817 26.7713 116.444 28.0047 113.881 28.0047ZM102.11 28.0047H104.103V19.7502C104.103 16.2396 101.351 13.3933 98.0282 13.3933C96.4144 13.3933 94.8953 14.0574 93.7562 15.2908C92.6172 16.5243 91.9524 18.0423 91.9524 19.7502V28.0047H94.041V19.7502C94.041 18.6116 94.5158 17.473 95.2748 16.714C96.0343 15.955 97.0786 15.4806 98.1229 15.4806C100.306 15.4806 102.11 17.3782 102.11 19.7502V28.0047ZM123.564 28.0047H125.558V19.7502C125.558 18.6116 126.033 17.473 126.792 16.714C127.551 15.955 128.595 15.4806 129.64 15.4806V13.3933C128.026 13.3933 126.507 14.0574 125.368 15.2908C124.229 16.5243 123.564 18.0423 123.564 19.7502V28.0047ZM151.567 13.3933H149.479V28.0047H151.567V13.3933ZM51.228 13.4882C49.1394 13.4882 47.3356 14.6268 46.1966 16.2397C45.1523 14.5319 43.2537 13.4882 41.1656 13.4882C39.5518 13.4882 38.0327 14.1523 36.8937 15.3858C35.7547 16.5243 35.1852 18.1373 35.1852 19.8451V28.0996H37.2732V19.8451C37.2732 18.7066 37.6532 17.6629 38.4128 16.809C39.1718 16.05 40.1213 15.5756 41.1656 15.5756C43.349 15.5756 45.1523 17.4731 45.1523 19.8451V28.0996H47.2409V19.8451C47.2409 17.4731 49.0447 15.5756 51.228 15.5756C53.4114 15.5756 55.2147 17.4731 55.2147 19.8451V28.0996H57.3033V19.8451C57.3033 16.2397 54.5504 13.4882 51.228 13.4882ZM138.657 13.4882C142.644 13.4882 145.871 16.6192 145.966 20.6042V28.4792C145.966 32.6538 142.644 35.9746 138.467 35.9746C134.29 35.9746 130.968 32.6538 130.968 28.4792H133.056C133.056 31.4204 135.429 33.8873 138.467 33.8873C141.41 33.8873 143.878 31.5153 143.878 28.4792V25.7276V20.7939V20.6991C143.878 17.8527 141.6 15.4807 138.657 15.4807C135.809 15.4807 133.436 17.7578 133.436 20.6991C133.436 23.5454 135.714 25.9174 138.657 25.9174C139.986 25.9174 141.22 25.443 142.169 24.5891V27.1508C141.125 27.7201 139.986 28.0996 138.657 28.0996C134.67 28.0996 131.347 24.8738 131.347 20.7939C131.347 16.809 134.575 13.4882 138.657 13.4882Z" fill="#B0B0B0"/>
</g>
<defs>
<clipPath id="clip0_2_1995">
<rect width="151.462" height="42.9914" fill="white" transform="translate(0.154175 0.93689)"/>
</clipPath>
</defs>
</svg>
