<svg width="137" height="59" viewBox="0 0 137 59" fill="none" xmlns="http://www.w3.org/2000/svg">
<g clip-path="url(#clip0_2_1977)">
<mask id="mask0_2_1977" style="mask-type:luminance" maskUnits="userSpaceOnUse" x="-27" y="0" width="164" height="59">
<path d="M136.914 0H-26.4531V58.8652H136.914V0Z" fill="white"/>
</mask>
<g mask="url(#mask0_2_1977)">
<path fill-rule="evenodd" clip-rule="evenodd" d="M-4.81875 17.3895L6.04796 26.8625L-10.1728 41.0024L-26.3984 26.8625L-15.5269 17.3895H-4.81875ZM-8.22327 29.1599L-5.02519 34.6918L-3.10443 31.3756L-7.95916 28.7033L-8.22327 29.1599ZM-0.813961 27.4056H-7.19084L-7.41656 27.7613L-2.56183 30.4335L-0.813961 27.4056ZM-2.38898 23.5607L-7.35895 26.0407L-7.19084 26.3194H-0.79953L-2.38898 23.5607ZM0.434547 27.4104L-2.92679 33.25L3.76708 27.4104H0.434547ZM0.439341 26.3194H3.77187L-2.922 20.4847L0.439341 26.3194ZM-2.95081 22.6187L-5.02519 19.0188L-8.22327 24.5652L-7.90634 25.1131L-2.95081 22.6187ZM-5.96635 18.4757H-9.63024L-9.64462 24.022H-9.16443L-5.96635 18.4757ZM-9.15005 29.7078H-9.63024V35.2494H-5.95197L-9.15005 29.7078ZM-6.4754 36.3356H-9.63024V39.0847L-6.4754 36.3356ZM-12.1272 24.5796L-15.3253 19.0332L-17.246 22.3495L-12.3913 25.0602L-12.1272 24.5796ZM-19.5365 26.3339H-13.1404L-12.9531 25.9638L-17.7886 23.3059L-19.5365 26.3339ZM-17.9471 30.1644L-12.9867 27.6844L-13.1404 27.4056H-19.5365L-17.9471 30.1644ZM-20.785 26.3194L-17.4237 20.4847L-24.1175 26.3194H-20.785ZM-20.7898 27.4056H-24.1175L-17.4285 33.2404L-20.7898 27.4056ZM-12.4393 28.612L-17.3949 31.1064L-15.3253 34.6918L-12.1224 29.1599L-12.4393 28.612ZM-13.8703 36.3356L-10.7154 39.0847V36.3356H-13.8703ZM-14.3937 35.2398H-10.7154V29.6982H-11.1956L-14.3937 35.2398ZM-11.1956 24.0125H-10.7154L-10.7299 18.4757H-14.3937L-11.1956 24.0125ZM78.384 17.3895H82.0766V21.0662H87.0751V24.5123H82.0668V31.5678C82.0668 33.1026 82.8493 33.87 84.4149 33.87H87.0751V37.3353H84.1459C80.3046 37.3353 78.384 35.4128 78.384 31.5678V24.5123H76.5929V21.0662H78.384V17.3895ZM53.3517 21.3049C54.3951 20.8966 55.5115 20.7088 56.6305 20.7535C57.7507 20.7096 58.8676 20.8979 59.9115 21.3067C60.9548 21.7155 61.9029 22.3359 62.6958 23.1289C63.4887 23.9219 64.1089 24.8704 64.5179 25.9148C64.9268 26.9593 65.1158 28.0771 65.0723 29.198C65.0614 29.681 65.0178 30.1627 64.9426 30.6399H52.0257C52.237 31.7051 52.8023 32.6673 53.6295 33.3698C54.4844 34.0332 55.5452 34.3735 56.6262 34.3311C58.2876 34.3311 59.4878 33.7928 60.2083 32.7258H64.3567C63.92 34.2383 62.9169 35.5241 61.5577 36.316C60.0721 37.2111 58.3644 37.6676 56.6305 37.6329C55.5104 37.6813 54.3924 37.4961 53.3474 37.089C52.3029 36.682 51.3538 36.062 50.5609 35.2685C49.768 34.4749 49.1488 33.5251 48.7421 32.4793C48.3353 31.4334 48.1501 30.3144 48.1986 29.1932C48.1539 28.0729 48.3418 26.9555 48.7497 25.9114C49.1575 24.8672 49.7767 23.9189 50.569 23.1261C51.3614 22.3333 52.3084 21.7132 53.3517 21.3049ZM53.7542 24.9493C52.9509 25.5733 52.3781 26.4477 52.1265 27.4341H61.0823C60.8525 26.4469 60.2894 25.5692 59.4878 24.9493C58.6448 24.3671 57.645 24.0553 56.6213 24.0553C55.5969 24.0553 54.5971 24.3671 53.7542 24.9493ZM30.086 20.7538C31.7992 20.7119 33.4667 21.3098 34.7633 22.4312V21.0662H38.5327V37.316H34.7633V35.9511C33.4759 37.0892 31.8025 37.6911 30.086 37.6332C28.9659 37.6816 27.848 37.4964 26.8031 37.0893C25.7582 36.6823 24.8092 36.0623 24.0164 35.2688C23.2236 34.4752 22.6042 33.5254 22.1975 32.4796C21.7909 31.4338 21.6058 30.3148 21.6541 29.1936C21.6102 28.0734 21.7982 26.9564 22.2065 25.9125C22.6147 24.8687 23.2342 23.9207 24.0261 23.128C24.8181 22.3354 25.7652 21.7153 26.8081 21.3067C27.851 20.8981 28.967 20.7099 30.086 20.7538ZM31.9332 33.8826C32.5186 33.6431 33.0463 33.2816 33.4814 32.8222C34.3668 31.8276 34.8275 30.5245 34.7633 29.1936C34.827 27.8611 34.3668 26.5568 33.4814 25.5601C33.0446 25.1039 32.5164 24.7459 31.931 24.5098C31.3456 24.2736 30.7166 24.1647 30.086 24.1903C29.4489 24.1628 28.8134 24.2706 28.2204 24.5068C27.628 24.7428 27.0921 25.1018 26.648 25.5601C26.2019 26.0534 25.8572 26.6299 25.634 27.2567C25.4106 27.8835 25.3131 28.5482 25.3467 29.2128C25.2854 30.5453 25.7532 31.8481 26.648 32.8367C27.0911 33.2965 27.6268 33.6569 28.2193 33.8939C28.8123 34.1308 29.4484 34.239 30.086 34.2112C30.7183 34.2341 31.3478 34.122 31.9332 33.8826ZM17.0158 23.21L21.9425 21.0664V24.9402L17.0158 26.954V37.3115H13.2559V21.0664H17.0158V23.21ZM48.4872 21.0664L43.5557 23.21V21.0664H39.8004V37.3115H43.5557V26.954L48.4872 24.9402V21.0664ZM74.9217 29.2126C74.4779 28.8748 73.9937 28.5923 73.4813 28.3716C72.9656 28.1506 72.4385 27.958 71.9016 27.7948C71.3782 27.6363 70.9028 27.4728 70.4612 27.3142C70.0588 27.1672 69.695 26.9324 69.395 26.6269C69.1216 26.3327 68.9751 25.9424 68.9865 25.5407C68.9746 25.3239 69.0116 25.1071 69.0944 24.9066C69.1777 24.706 69.3051 24.5268 69.4668 24.3824C69.8366 24.0886 70.3016 23.9415 70.7732 23.9691C71.0188 23.9563 71.2644 23.9951 71.4942 24.0828C71.724 24.1705 71.9331 24.3053 72.1079 24.4785C72.2789 24.6755 72.4091 24.9043 72.4913 25.1517C72.5741 25.3991 72.6068 25.6603 72.5882 25.9204H76.3626C76.3876 25.223 76.2602 24.5286 75.9901 23.8853C75.7194 23.2421 75.3127 22.6655 74.797 22.1956C73.6893 21.2115 72.2435 20.6947 70.7634 20.7537C69.3917 20.7051 68.0537 21.1831 67.0229 22.0898C66.5409 22.5208 66.1592 23.0522 65.9043 23.6468C65.6495 24.2413 65.528 24.8845 65.5487 25.5311C65.5411 26.1237 65.6255 26.7138 65.7981 27.2806C65.9337 27.7436 66.157 28.1761 66.456 28.5542C66.7353 28.8866 67.0583 29.1793 67.4166 29.4241C67.7629 29.6708 68.1387 29.8726 68.5356 30.0249C68.9245 30.1787 69.3133 30.3229 69.707 30.4575L70.8261 30.842C71.1577 30.9584 71.479 31.1031 71.7861 31.2746C72.0508 31.4232 72.2762 31.6323 72.4439 31.8849C72.6394 32.2148 72.7216 32.5994 72.6781 32.9802C72.6345 33.3611 72.4684 33.7174 72.2038 33.9948C71.8335 34.2989 71.3624 34.4532 70.8838 34.4274C70.6344 34.4411 70.3855 34.4024 70.1519 34.3138C69.9188 34.2252 69.7064 34.0887 69.5295 33.9131C69.1858 33.5145 69.0132 32.9964 69.0492 32.4713H65.3086C65.283 33.1723 65.4099 33.8705 65.68 34.5177C65.9501 35.1649 66.3574 35.7458 66.8742 36.2202C67.9802 37.2035 69.4244 37.7202 70.9028 37.662C72.3568 37.7263 73.7825 37.2466 74.9026 36.3163C75.4003 35.8742 75.7919 35.326 76.0495 34.7121C76.3076 34.0982 76.4241 33.4343 76.3914 32.7692C76.4083 32.0334 76.2673 31.3025 75.9781 30.6257C75.7467 30.0755 75.384 29.5903 74.9217 29.2126ZM112.664 20.7538C111.938 20.7306 111.215 20.8568 110.539 21.1246C109.864 21.3925 109.25 21.7963 108.737 22.311V21.0662H104.977V37.3112H108.737V27.5738C108.717 27.1253 108.787 26.6774 108.943 26.2564C109.099 25.8354 109.337 25.45 109.644 25.1227C109.97 24.8067 110.357 24.5613 110.782 24.4017C111.207 24.2421 111.659 24.1718 112.112 24.195C112.555 24.1786 112.996 24.2528 113.409 24.4131C113.822 24.5735 114.197 24.8166 114.513 25.1275C114.825 25.4513 115.068 25.8351 115.227 26.2556C115.386 26.676 115.459 27.1245 115.44 27.5738V37.3112H119.181V27.5738C119.215 26.6781 119.072 25.7843 118.761 24.9439C118.449 24.1035 117.975 23.3329 117.366 22.6763C116.761 22.044 116.029 21.5461 115.219 21.2149C114.409 20.8838 113.539 20.7266 112.664 20.7538ZM134.442 23.2138C136.025 24.7984 136.914 26.9475 136.914 29.1884C136.91 29.6741 136.873 30.1591 136.804 30.6398H123.887C124.093 31.706 124.657 32.6693 125.485 33.3698C126.341 34.0321 127.402 34.3723 128.482 34.331C130.156 34.3342 131.35 33.7992 132.064 32.7257H136.199C135.759 34.2373 134.755 35.5213 133.395 36.3112C131.907 37.2069 130.198 37.6634 128.463 37.6281C127.342 37.6764 126.224 37.4912 125.18 37.0842C124.135 36.6771 123.186 36.0572 122.393 35.2637C121.6 34.4701 120.981 33.5203 120.574 32.4744C120.167 31.4286 119.983 30.3096 120.031 29.1884C120.031 26.9475 120.92 24.7984 122.503 23.2138C124.087 21.6293 126.234 20.7391 128.472 20.7391C130.712 20.7391 132.859 21.6293 134.442 23.2138ZM125.572 24.9445C124.77 25.5689 124.199 26.4434 123.949 27.4293H132.905C132.675 26.4421 132.112 25.5644 131.311 24.9445C130.467 24.3625 129.466 24.0509 128.441 24.0509C127.417 24.0509 126.416 24.3625 125.572 24.9445ZM95.7668 20.7535C94.6472 20.7088 93.5308 20.8966 92.4875 21.3049C91.4446 21.7132 90.4971 22.3333 89.7048 23.1261C88.913 23.9189 88.2933 24.8672 87.8854 25.9114C87.4775 26.9555 87.2897 28.0729 87.3343 29.1932C87.3076 30.3194 87.5059 31.4397 87.9181 32.488C88.3303 33.5363 88.9473 34.4916 89.7336 35.2976C90.52 36.1037 91.4594 36.7442 92.4967 37.1815C93.5341 37.6187 94.6483 37.8441 95.7739 37.8441C96.8995 37.8441 98.0136 37.6187 99.0505 37.1815C100.088 36.7442 101.027 36.1037 101.814 35.2976C102.6 34.4916 103.217 33.5363 103.63 32.488C104.041 31.4397 104.24 30.3194 104.213 29.1932C104.256 28.0722 104.066 26.9546 103.657 25.9104C103.247 24.8662 102.626 23.918 101.833 23.1254C101.04 22.3329 100.091 21.7131 99.0472 21.3049C98.0033 20.8967 96.8864 20.709 95.7668 20.7535ZM99.1567 32.8267C98.7227 33.2856 98.1955 33.6464 97.6107 33.8851C97.0264 34.1238 96.3974 34.2349 95.7668 34.2109C95.1291 34.2387 94.4925 34.1305 93.9001 33.8935C93.307 33.6566 92.7717 33.2962 92.3285 32.8363C91.4316 31.8488 90.9638 30.5453 91.027 29.2124C90.9921 28.5477 91.0896 27.8828 91.3129 27.2559C91.5361 26.6289 91.8814 26.0525 92.3285 25.5597C92.7723 25.1015 93.3081 24.7425 93.9011 24.5064C94.4936 24.2703 95.1291 24.1624 95.7668 24.19C96.3963 24.1641 97.0247 24.2729 97.609 24.5091C98.1939 24.7453 98.721 25.1035 99.1567 25.5597C100.046 26.5546 100.508 27.8599 100.443 29.1932C100.509 30.5252 100.046 31.829 99.1567 32.8219V32.8267Z" fill="#B0B0B0"/>
</g>
</g>
<defs>
<clipPath id="clip0_2_1977">
<rect width="136.911" height="58.8652" fill="white"/>
</clipPath>
</defs>
</svg>
