<svg width="146" height="44" viewBox="0 0 146 44" fill="none" xmlns="http://www.w3.org/2000/svg">
<path fill-rule="evenodd" clip-rule="evenodd" d="M16.6596 3.58257C16.1101 3.57934 15.5705 3.72904 15.1019 4.0148L5.27826 10.0012L4.57534 10.4335L3.45586 11.1121C2.44051 11.7258 1.62909 12.3396 1.62909 14.4316V22.4107C1.62909 24.0964 2.27995 25.4147 3.36474 26.063L15.2928 33.3245C15.7343 33.5914 16.2392 33.7361 16.7555 33.7437C17.2719 33.7512 17.7809 33.6216 18.2301 33.3679C18.6793 33.1142 19.0525 32.7457 19.3111 32.3004C19.5697 31.8552 19.7043 31.3493 19.7012 30.8349V25.1943C19.7019 24.5175 19.5279 23.8519 19.1958 23.2615C18.8638 22.6711 18.3848 22.1757 17.8051 21.8228L12.1643 18.4125L18.0568 14.8293C18.5572 14.523 18.9705 14.094 19.2569 13.5832C19.5433 13.0723 19.6933 12.4968 19.6926 11.9117V6.60821C19.6926 5.80651 19.3732 5.03758 18.8045 4.47028C18.2358 3.90299 17.4644 3.58372 16.6596 3.58257ZM18.022 11.9247C18.0241 12.2242 17.948 12.5192 17.8012 12.7805C17.6544 13.042 17.4419 13.2609 17.1846 13.4159L10.5502 17.4529L7.07897 15.348C6.31055 14.9509 5.61161 14.4328 5.00921 13.8135C4.89634 13.6701 4.81516 13.5046 4.7708 13.3277C4.7265 13.1509 4.72011 12.9668 4.75207 12.7873C4.78397 12.6079 4.85351 12.4371 4.95616 12.2863C5.05881 12.1354 5.19222 12.0078 5.3477 11.9117L15.948 5.45414C16.1555 5.32243 16.3962 5.25199 16.6422 5.25099C16.8223 5.24985 17.0008 5.28406 17.1676 5.35165C17.3344 5.41924 17.4862 5.51889 17.6143 5.64492C17.7424 5.77095 17.8444 5.92089 17.9143 6.08617C17.9843 6.25145 18.0209 6.42885 18.022 6.60821V11.9247ZM106.76 11.9031H109.845V33.4154H106.76V11.9031ZM99.7435 30.42C99.484 30.1931 99.2852 29.9059 99.1639 29.5839C99.0426 29.2619 99.0033 28.9151 99.0492 28.5743V21.9698H103.288V19.3764H99.1229V15.6851H96.0423V19.3721H93.725V21.9655H95.9642V28.8077C95.9178 29.4854 96.0178 30.1652 96.257 30.8011C96.4969 31.4371 96.87 32.0146 97.3524 32.4947C98.4466 33.3532 99.8146 33.7892 101.205 33.7222C102.065 33.7333 102.921 33.6301 103.753 33.4154V30.8133C103.38 30.843 103.056 30.8733 102.783 30.899C102.378 30.9369 102.083 30.9646 101.9 30.9646C101.138 31.0612 100.367 30.8666 99.7435 30.42ZM59.0218 27.04C58.1953 26.2156 57.195 25.5851 56.0931 25.1944L54.7913 24.6584C54.263 24.4826 53.7653 24.2259 53.3157 23.8977C53.1933 23.7943 53.095 23.6651 53.0278 23.5193C52.9612 23.3736 52.9278 23.215 52.93 23.0548C52.93 22.1299 53.5457 21.6716 54.8563 21.6716C55.4801 21.6756 56.0964 21.8069 56.6673 22.0574C57.2381 22.308 57.7517 22.6724 58.1756 23.1283L59.7162 21.2092C59.1365 20.4859 58.3952 19.908 57.5517 19.5214C56.7077 19.1348 55.7844 18.9505 54.8563 18.9832C53.5845 18.9115 52.3285 19.2914 51.3113 20.0551C50.859 20.4058 50.4968 20.8589 50.2553 21.3769C50.0139 21.8948 49.8997 22.4626 49.9226 23.0332C49.8817 23.4694 49.9385 23.9092 50.0887 24.321C50.2384 24.7328 50.4782 25.1063 50.7907 25.4148C51.5736 26.2002 52.5225 26.8025 53.5676 27.1783L54.9994 27.8094C55.5381 28.0503 56.0538 28.3397 56.54 28.6739C56.6875 28.7775 56.8066 28.9157 56.8874 29.0763C56.9688 29.2369 57.0087 29.4148 57.0043 29.5945C57.0076 29.823 56.953 30.0488 56.8453 30.2505C56.7377 30.4524 56.5804 30.6237 56.3881 30.7485C55.8817 30.9925 55.3277 31.1238 54.765 31.1332C53.9975 31.0824 53.2474 30.8796 52.5585 30.5367C51.8702 30.1939 51.2573 29.7178 50.7558 29.1363L49.0595 31.0555C49.7347 31.9204 50.6006 32.6196 51.5894 33.0991C52.5788 33.5787 53.6653 33.8259 54.765 33.8217C56.0931 33.8236 57.3884 33.4126 58.4706 32.646C58.9464 32.2564 59.3261 31.7629 59.5796 31.2038C59.8331 30.6446 59.9538 30.0348 59.933 29.4216C59.9336 28.5432 59.6091 27.6954 59.0218 27.04ZM69.9746 19.048H69.8183C68.8792 19.052 67.9516 19.2456 67.0901 19.617C66.2286 19.9885 65.4518 20.5301 64.8066 21.2091C64.1177 21.8628 63.5703 22.6496 63.1972 23.5214C62.8241 24.3932 62.6334 25.3316 62.6372 26.2792V26.4348C62.6181 27.4134 62.8077 28.3848 63.1939 29.2849C63.5796 30.185 64.1532 30.9933 64.876 31.6562C65.5752 32.3705 66.4165 32.9316 67.3463 33.3038C68.2756 33.6759 69.2726 33.8508 70.2739 33.8174C72.3838 33.8122 74.4083 32.9854 75.9145 31.5136L74.4477 29.4388C73.9112 29.9742 73.2742 30.399 72.5728 30.689C71.8719 30.979 71.1196 31.1284 70.3603 31.1289C69.2469 31.165 68.1554 30.8118 67.2753 30.1304C66.8525 29.8063 66.4979 29.4018 66.2324 28.9403C65.9675 28.4789 65.797 27.9696 65.7309 27.4419H76.2226C76.3739 26.8118 76.451 26.1664 76.4526 25.5185C76.4728 24.6655 76.3187 23.8173 76.0008 23.0253C75.6823 22.2333 75.2059 21.5138 74.6001 20.9105C73.9942 20.3072 73.272 19.8326 72.4772 19.5155C71.6823 19.1983 70.8306 19.0451 69.9746 19.0652V19.048ZM65.7309 25.043C65.9396 24.0647 66.4526 23.1768 67.1972 22.5058C67.9358 21.9147 68.8536 21.5902 69.8008 21.5852C70.7372 21.5711 71.6457 21.8985 72.3564 22.5058C73.0388 23.1762 73.4272 24.0883 73.437 25.043H65.7309ZM81.9544 19.8589C82.9956 19.3338 84.156 19.0871 85.3218 19.143C86.0915 19.1038 86.8618 19.2181 87.5867 19.4794C88.3117 19.7407 88.9771 20.1436 89.5436 20.6645C90.0888 21.2337 90.5083 21.9106 90.7744 22.6515C91.0404 23.3923 91.1475 24.1806 91.088 24.9652V33.4068H88.3111V31.8118C87.7484 32.4549 87.0464 32.9619 86.2576 33.2944C85.4693 33.627 84.6149 33.7762 83.7593 33.7309C82.4859 33.8145 81.2251 33.4318 80.2144 32.6546C79.7959 32.2883 79.4622 31.8361 79.236 31.329C79.0098 30.8218 78.8962 30.2719 78.9038 29.717C78.9109 29.1621 79.0393 28.6154 79.2791 28.1145C79.5184 27.6135 79.8648 27.1703 80.2925 26.8152C81.3966 26.0467 82.7274 25.6693 84.0718 25.7433H88.0986V24.8183C88.1396 24.4651 88.1106 24.1073 88.0123 23.7655C87.9145 23.4237 87.7495 23.1045 87.5272 22.8262C87.3054 22.5479 87.0301 22.316 86.7181 22.1439C86.4056 21.9717 86.0626 21.8627 85.708 21.8229H85.0918C84.3237 21.8629 83.5736 22.0693 82.894 22.4276C82.2144 22.7859 81.6211 23.2876 81.1562 23.8976L79.3813 22.1385C80.0265 21.1695 80.9131 20.384 81.9544 19.8589ZM87.8189 29.528C88.0052 29.117 88.1008 28.6709 88.0986 28.2199L88.1161 27.9909H84.4149C82.7919 27.8396 81.9456 28.4533 81.9456 29.6031C81.938 29.8728 81.997 30.1403 82.1183 30.3816C82.2395 30.6231 82.4187 30.8307 82.64 30.9862C83.159 31.3493 83.7807 31.5385 84.4149 31.5265C85.3649 31.5346 86.2876 31.2069 87.018 30.6016C87.3595 30.3051 87.6321 29.9389 87.8189 29.528ZM119.565 19.143C118.399 19.087 117.239 19.3337 116.198 19.8588C115.156 20.3839 114.27 21.1693 113.624 22.1383L115.399 23.8975C115.864 23.2881 116.456 22.7868 117.135 22.4285C117.814 22.0702 118.563 21.8635 119.331 21.8228H119.947C120.301 21.862 120.645 21.9707 120.957 22.1427C121.27 22.3147 121.545 22.5465 121.768 22.825C121.99 23.1034 122.154 23.4228 122.252 23.7649C122.35 24.107 122.379 24.4649 122.337 24.8182V25.7431H118.35C117.006 25.6705 115.675 26.0478 114.571 26.8151C114.125 27.1592 113.767 27.6031 113.526 28.1108C113.285 28.6184 113.167 29.1755 113.182 29.737C113.16 30.2902 113.266 30.8409 113.492 31.3468C113.717 31.8527 114.057 32.3001 114.484 32.6546C115.502 33.4209 116.759 33.8022 118.033 33.7308C118.888 33.7761 119.742 33.6268 120.531 33.2943C121.32 32.9618 122.022 32.4548 122.585 31.8117V33.4067H125.362V24.9652C125.419 24.1807 125.311 23.3928 125.045 22.6522C124.779 21.9116 124.361 21.2345 123.817 20.6644C123.247 20.1398 122.577 19.7347 121.846 19.4733C121.115 19.2119 120.34 19.0996 119.565 19.143ZM122.337 28.2199C122.34 28.6705 122.245 29.1164 122.059 29.5273C121.874 29.9382 121.602 30.3046 121.261 30.6014C120.53 31.2065 119.608 31.5341 118.658 31.5265C118.025 31.5378 117.405 31.3486 116.888 30.9861C116.666 30.8309 116.486 30.6233 116.364 30.382C116.242 30.1407 116.182 29.873 116.189 29.603C116.189 28.4533 117.057 27.8395 118.736 27.9908H122.359L122.337 28.2199ZM142.379 21.1227C143.675 22.5567 144.389 24.4191 144.384 26.3484C144.428 27.3079 144.272 28.2661 143.927 29.163C143.582 30.06 143.055 30.8764 142.379 31.5611C141.753 32.2444 140.99 32.7897 140.14 33.1619C139.289 33.5341 138.37 33.725 137.441 33.7223C136.489 33.7879 135.534 33.6192 134.663 33.2311C133.791 32.8429 133.029 32.2471 132.443 31.4963V33.4068H129.587V11.9031H132.668V21.0449C133.246 20.3769 133.969 19.8496 134.783 19.5035C135.597 19.1573 136.479 19.0015 137.363 19.048C138.299 19.0187 139.231 19.1886 140.096 19.5463C140.961 19.9041 141.739 20.4415 142.379 21.1227ZM138.503 30.6963C139.033 30.4732 139.513 30.1438 139.91 29.7284H139.923C140.346 29.2881 140.674 28.7658 140.886 28.194C141.098 27.6223 141.19 27.0131 141.155 26.4046C141.187 25.7989 141.094 25.1932 140.882 24.6247C140.67 24.0561 140.343 23.5366 139.923 23.098C139.526 22.6826 139.047 22.3532 138.516 22.1301C137.985 21.9071 137.414 21.7951 136.838 21.8013C136.278 21.7822 135.72 21.8822 135.202 22.0946C134.683 22.307 134.216 22.627 133.831 23.0332C133.395 23.4773 133.057 24.0086 132.842 24.592C132.627 25.1753 132.538 25.7975 132.582 26.4176C132.551 27.0346 132.644 27.6515 132.857 28.232C133.069 28.8125 133.396 29.3448 133.818 29.7976C134.619 30.586 135.699 31.0273 136.825 31.0252C137.401 31.0313 137.972 30.9194 138.503 30.6963ZM25.7323 12.1018L37.6429 19.359C38.7279 20.0074 39.3785 21.33 39.3785 23.033V30.9904C39.3785 33.0868 38.5629 33.6962 37.5517 34.3057L36.4279 34.9886L35.7298 35.4208L25.9146 41.4073C25.4458 41.693 24.9064 41.8427 24.3568 41.8395C23.5513 41.8395 22.7788 41.5207 22.2091 40.9533C21.6395 40.3859 21.3195 39.6163 21.3195 38.8138V33.4974C21.3192 32.9124 21.4698 32.3372 21.7571 31.827C22.0443 31.3168 22.4584 30.8888 22.9597 30.5841L28.8606 26.9923L23.22 23.5819C22.6392 23.2299 22.1592 22.7348 21.8263 22.1443C21.4934 21.5538 21.3189 20.8878 21.3195 20.2105V14.5915C21.3173 14.077 21.4527 13.5712 21.7119 13.1261C21.9711 12.681 22.3445 12.3128 22.7939 12.0593C23.2434 11.8057 23.7525 11.676 24.2689 11.6835C24.7854 11.6909 25.2905 11.8354 25.7323 12.1018ZM25.0598 39.9723L35.6598 33.5147C35.8166 33.4197 35.951 33.2929 36.0548 33.1425C36.1592 32.9921 36.2296 32.8216 36.263 32.6421C36.2963 32.4626 36.2908 32.2781 36.2477 32.1008C36.2045 31.9234 36.1237 31.7571 36.0117 31.6128C35.4129 30.991 34.7153 30.4725 33.9461 30.0784L30.4749 27.9734L23.8405 32.0105C23.5838 32.1651 23.3718 32.3834 23.225 32.644C23.0782 32.9045 23.0018 33.1986 23.0031 33.4974V38.8138C23.0042 39.1739 23.148 39.5188 23.4031 39.7739C23.6582 40.0288 24.0042 40.1731 24.3655 40.1754C24.6114 40.173 24.8517 40.1027 25.0598 39.9723Z" fill="#B0B0B0"/>
</svg>
