<svg width="128" height="59" viewBox="0 0 128 59" fill="none" xmlns="http://www.w3.org/2000/svg">
<g clip-path="url(#clip0_2_1987)">
<path fill-rule="evenodd" clip-rule="evenodd" d="M-10.0787 16.135C-9.86964 15.9283 -9.58843 15.811 -9.29458 15.808H17.9333C18.0472 15.7998 18.1607 15.8276 18.2578 15.8875C18.355 15.9474 18.4309 16.0364 18.4748 16.1418C18.5188 16.2472 18.5285 16.3638 18.5027 16.475C18.4768 16.5863 18.4167 16.6866 18.3308 16.7618L12.9506 22.1414C12.8485 22.2457 12.7264 22.3284 12.5917 22.3846C12.457 22.4408 12.3124 22.4693 12.1664 22.4685H-15.0778C-15.1902 22.4729 -15.3012 22.4424 -15.3956 22.3811C-15.49 22.3198 -15.5631 22.2308 -15.6049 22.1262C-15.6466 22.0217 -15.655 21.9067 -15.6289 21.7972C-15.6028 21.6877 -15.5434 21.589 -15.459 21.5146L-10.0787 16.135ZM64.2151 22.5884C64.1584 22.5891 64.1029 22.601 64.0512 22.6233C63.9989 22.6455 63.952 22.6779 63.9123 22.7184C63.8731 22.7588 63.842 22.8067 63.8208 22.8592C63.8001 22.9117 63.7898 22.9679 63.7903 23.0244V35.3425C63.7898 35.3991 63.8001 35.4552 63.8208 35.5077C63.842 35.5602 63.8731 35.6081 63.9123 35.6486C63.952 35.6891 63.9989 35.7214 64.0512 35.7437C64.1029 35.766 64.1584 35.7778 64.2151 35.7785H74.0824C74.1418 35.7772 74.2006 35.7639 74.2545 35.7396C74.309 35.7152 74.358 35.6803 74.3983 35.6368L75.6344 34.3396C75.6922 34.2782 75.7303 34.2013 75.7444 34.1184C75.7586 34.0355 75.7482 33.9503 75.715 33.8732C75.6813 33.7961 75.6257 33.7305 75.5555 33.6846C75.4852 33.6386 75.403 33.6144 75.3186 33.6147H66.7037C66.647 33.614 66.5915 33.6022 66.5398 33.5799C66.4875 33.5576 66.4407 33.5252 66.4009 33.4848C66.3617 33.4443 66.3307 33.3964 66.3094 33.3439C66.2887 33.2914 66.2784 33.2352 66.2789 33.1787V23.0135C66.28 22.9572 66.2691 22.9013 66.2484 22.8492C66.2272 22.797 66.1962 22.7494 66.1564 22.7094C66.1172 22.6693 66.0698 22.6375 66.0181 22.6158C65.9664 22.5941 65.9103 22.5829 65.8542 22.5829H64.2205L64.2151 22.5884ZM32.8431 30.4588H38.2342C38.5996 30.4588 38.9503 30.6041 39.2084 30.8626C39.4671 31.1213 39.6119 31.472 39.6119 31.8377C39.6119 32.2035 39.4671 32.5542 39.2084 32.8128C38.9503 33.0714 38.5996 33.2167 38.2342 33.2167H31.754C31.651 33.2167 31.5519 33.2556 31.4762 33.3257L29.5158 35.0154C29.451 35.0729 29.4053 35.1487 29.3846 35.2327C29.3634 35.3167 29.3683 35.4051 29.3982 35.4863C29.4282 35.5675 29.4821 35.6378 29.5529 35.6879C29.6231 35.7381 29.707 35.7659 29.7936 35.7675H37.9619H38.2669C39.2857 35.7755 40.2676 35.3868 41.0055 34.6835C41.7433 33.9803 42.179 33.0176 42.2204 31.9987C42.2623 30.9799 41.9067 29.9847 41.2287 29.2234C40.5513 28.4621 39.6043 27.9943 38.5882 27.9188H32.7233C32.3579 27.9188 32.0077 27.7736 31.7491 27.515C31.4909 27.2563 31.3455 26.9056 31.3455 26.5399C31.3455 26.1741 31.4909 25.8234 31.7491 25.5648C32.0077 25.3062 32.3579 25.1609 32.7233 25.1609H39.2144C39.3211 25.1585 39.4235 25.1179 39.503 25.0464L41.3218 23.3513C41.3856 23.2939 41.4308 23.2184 41.4509 23.1349C41.4711 23.0513 41.4651 22.9636 41.4346 22.8834C41.4041 22.8031 41.3496 22.734 41.2788 22.6852C41.2086 22.6364 41.1247 22.6102 41.0387 22.6101H32.7287C31.6875 22.6101 30.6888 23.0241 29.9526 23.7611C29.2163 24.4981 28.8025 25.4976 28.8025 26.5399C28.8025 27.5821 29.2163 28.5817 29.9526 29.3187C30.6888 30.0556 31.6875 30.4697 32.7287 30.4697L32.8431 30.4588ZM46.7979 23.3054C47.2303 22.8731 47.8075 22.6174 48.418 22.5883V22.5992H57.3542C57.963 22.6259 58.5397 22.8805 58.9704 23.3124C59.4012 23.7444 59.6538 24.3223 59.6794 24.932V33.2112V33.3148C59.6773 33.9431 59.4344 34.5468 59.0004 35.0011C58.5669 35.4555 57.9755 35.7259 57.3487 35.7566H48.418C47.7885 35.7312 47.1933 35.4626 46.7576 35.0073C46.322 34.5519 46.0797 33.9453 46.0818 33.3148V33.2112V24.9265C46.1107 24.3157 46.3661 23.7378 46.7979 23.3054ZM49.0747 25.3844C49.3448 25.1121 49.7069 24.9507 50.0898 24.932H55.715C56.0973 24.9508 56.4584 25.1123 56.7279 25.3848C56.9969 25.6572 57.1543 26.0207 57.169 26.4036V31.6143V31.6797C57.1707 32.0739 57.0204 32.4537 56.7497 32.74C56.4791 33.0263 56.1082 33.1971 55.715 33.2167H50.0898C49.695 33.1984 49.323 33.0283 49.0513 32.7418C48.779 32.4554 48.6282 32.0748 48.6304 31.6797V31.6143V26.4036C48.6461 26.0202 48.8046 25.6567 49.0747 25.3844ZM89.9786 35.3425C89.9781 35.3991 89.9884 35.4552 90.0091 35.5077C90.0304 35.5602 90.0614 35.6081 90.1006 35.6486C90.1404 35.6891 90.1872 35.7214 90.2389 35.7437C90.2912 35.766 90.3468 35.7778 90.4034 35.7786H92.0752C92.1318 35.7778 92.1874 35.766 92.2396 35.7437C92.2914 35.7214 92.3382 35.6891 92.378 35.6486C92.4172 35.6081 92.4482 35.5602 92.4694 35.5077C92.4901 35.4552 92.5005 35.3991 92.4999 35.3425V25.1502V25.0411C92.5048 24.4149 92.2669 23.8112 91.8361 23.3569C91.4059 22.9025 90.8162 22.633 90.191 22.6048H81.4781C81.1584 22.6083 80.8426 22.6751 80.5491 22.8013C80.255 22.9275 79.9893 23.1106 79.7665 23.3402C79.5438 23.5697 79.369 23.841 79.2514 24.1385C79.1338 24.4361 79.076 24.754 79.082 25.0738V25.1774V35.3534C79.082 35.4667 79.1267 35.5754 79.2062 35.656C79.2857 35.7366 79.3935 35.7826 79.5068 35.784H81.1786C81.2347 35.784 81.2902 35.7729 81.3425 35.7511C81.3942 35.7294 81.4411 35.6976 81.4808 35.6576C81.5206 35.6175 81.5516 35.57 81.5723 35.5178C81.5935 35.4656 81.6039 35.4097 81.6033 35.3534V31.1075C81.6033 30.9943 81.648 30.8855 81.7275 30.8049C81.807 30.7244 81.9148 30.6784 82.0281 30.6769H89.5702C89.6269 30.6762 89.6824 30.6868 89.7347 30.7083C89.7869 30.7297 89.8343 30.7615 89.8741 30.8017C89.9138 30.8419 89.9449 30.8897 89.9656 30.9423C89.9863 30.9948 89.9966 31.051 89.995 31.1075V35.3425H89.9786ZM81.5924 28.3441V26.2075C81.5908 26.0129 81.6278 25.8197 81.7008 25.6393C81.7743 25.4589 81.8821 25.2947 82.0183 25.156C82.155 25.0173 82.3178 24.907 82.4969 24.8311C82.6761 24.7553 82.8683 24.7155 83.0627 24.7141H88.5083C88.7027 24.7155 88.895 24.7553 89.0741 24.8311C89.2533 24.907 89.4161 25.0173 89.5522 25.156C89.6889 25.2947 89.7968 25.4589 89.8703 25.6393C89.9432 25.8197 89.9803 26.0129 89.9786 26.2075V28.3441C89.9786 28.4574 89.934 28.5661 89.8545 28.6467C89.775 28.7272 89.6671 28.7732 89.5539 28.7747H82.0172C81.9611 28.7747 81.905 28.7635 81.8533 28.7418C81.8016 28.7201 81.7542 28.6883 81.715 28.6483C81.6752 28.6082 81.6442 28.5607 81.6229 28.5085C81.6022 28.4562 81.5919 28.4004 81.5924 28.3441ZM125.134 35.7438C125.186 35.7662 125.241 35.778 125.298 35.7787L125.304 35.7678H127.003C127.116 35.7664 127.224 35.7204 127.303 35.6398C127.383 35.5591 127.427 35.4505 127.427 35.3372V25.1394V25.0358C127.425 24.4071 127.181 23.8033 126.747 23.3497C126.312 22.8961 125.719 22.6275 125.091 22.5994H116.302C115.656 22.6009 115.037 22.8588 114.581 23.3166C114.124 23.7743 113.868 24.3946 113.868 25.0413V25.1503V35.3427C113.867 35.3992 113.878 35.4553 113.898 35.5079C113.92 35.5603 113.951 35.6083 113.99 35.6488C114.03 35.6892 114.076 35.7215 114.129 35.7438C114.18 35.7662 114.236 35.778 114.293 35.7787H115.975C116.032 35.778 116.087 35.7662 116.14 35.7438C116.191 35.7215 116.238 35.6892 116.278 35.6488C116.317 35.6083 116.348 35.5603 116.37 35.5079C116.39 35.4553 116.401 35.3992 116.4 35.3427V31.1022C116.399 31.0456 116.41 30.9895 116.431 30.937C116.452 30.8844 116.483 30.8366 116.522 30.7961C116.562 30.7556 116.609 30.7233 116.661 30.701C116.713 30.6787 116.768 30.6669 116.825 30.6661H124.449C124.505 30.6669 124.561 30.6787 124.613 30.701C124.665 30.7233 124.712 30.7556 124.751 30.7961C124.791 30.8366 124.822 30.8844 124.843 30.937C124.864 30.9895 124.874 31.0456 124.873 31.1022V35.3427C124.873 35.3992 124.883 35.4553 124.904 35.5079C124.925 35.5603 124.956 35.6083 124.995 35.6488C125.035 35.6892 125.082 35.7215 125.134 35.7438ZM116.395 28.3442V26.2077C116.395 25.8125 116.551 25.4335 116.83 25.1535C117.109 24.8736 117.486 24.7156 117.881 24.7142H123.387C123.782 24.7156 124.16 24.8736 124.438 25.1535C124.717 25.4335 124.873 25.8125 124.873 26.2077V28.3442C124.874 28.401 124.864 28.4573 124.842 28.5099C124.821 28.5624 124.789 28.6102 124.749 28.6503C124.709 28.6905 124.662 28.7222 124.609 28.7435C124.556 28.7649 124.5 28.7755 124.443 28.7748H116.819C116.706 28.7734 116.598 28.7274 116.519 28.6468C116.439 28.5662 116.395 28.4575 116.395 28.3442ZM98.7999 22.5883C98.8615 22.5882 98.9224 22.6018 98.978 22.6283C99.0335 22.6547 99.0826 22.6931 99.1212 22.7409L106.62 31.696C106.677 31.762 106.753 31.8088 106.837 31.8301C106.921 31.8515 107.011 31.8464 107.092 31.8154C107.174 31.7845 107.243 31.7293 107.292 31.6572C107.341 31.5851 107.367 31.4997 107.366 31.4126V23.0243C107.365 22.9677 107.376 22.9116 107.397 22.8591C107.418 22.8066 107.449 22.7587 107.488 22.7182C107.528 22.6777 107.574 22.6454 107.627 22.6231C107.678 22.6008 107.734 22.589 107.791 22.5883H109.462C109.519 22.589 109.575 22.6008 109.627 22.6231C109.679 22.6454 109.726 22.6777 109.765 22.7182C109.804 22.7587 109.835 22.8066 109.857 22.8591C109.877 22.9116 109.888 22.9677 109.887 23.0243V35.3424C109.888 35.3989 109.877 35.455 109.857 35.5076C109.835 35.5601 109.804 35.608 109.765 35.6484C109.726 35.6889 109.679 35.7212 109.627 35.7435C109.575 35.7659 109.519 35.7777 109.462 35.7784H107.388L99.7638 26.8887C99.7066 26.8248 99.6309 26.7798 99.5476 26.7597C99.4643 26.7395 99.3766 26.7451 99.2966 26.7759C99.216 26.8066 99.1474 26.8608 99.0983 26.9316C99.0499 27.0023 99.0237 27.0862 99.0232 27.1721V35.3533C99.0232 35.4665 98.9785 35.5752 98.899 35.6558C98.8195 35.7365 98.7117 35.7825 98.5984 35.7839H96.9103C96.8542 35.7839 96.7987 35.7727 96.7464 35.751C96.6947 35.7293 96.6478 35.6975 96.6081 35.6574C96.5689 35.6174 96.5373 35.5698 96.5166 35.5176C96.4954 35.4655 96.485 35.4096 96.4855 35.3533V23.0243C96.485 22.9677 96.4954 22.9116 96.5166 22.8591C96.5373 22.8066 96.5683 22.7587 96.6081 22.7182C96.6473 22.6777 96.6941 22.6454 96.7464 22.6231C96.7981 22.6008 96.8537 22.589 96.9103 22.5883H98.7999ZM-9.71983 35.9824C-9.8545 36.0386 -9.97659 36.1213 -10.0787 36.2256L-15.459 41.6053C-15.5434 41.6797 -15.6028 41.7784 -15.6289 41.8879C-15.655 41.9974 -15.6466 42.1124 -15.6049 42.2169C-15.5631 42.3214 -15.49 42.4105 -15.3956 42.4718C-15.3012 42.533 -15.1902 42.5636 -15.0778 42.5591H12.1664C12.3124 42.56 12.457 42.5315 12.5917 42.4753C12.7264 42.4191 12.8485 42.3364 12.9506 42.2321L18.3308 36.8524C18.4167 36.7772 18.4768 36.6769 18.5027 36.5656C18.5285 36.4544 18.5188 36.3379 18.4748 36.2324C18.4309 36.127 18.355 36.0381 18.2578 35.9782C18.1607 35.9183 18.0472 35.8904 17.9333 35.8986H-9.29458C-9.44047 35.8977 -9.58511 35.9263 -9.71983 35.9824ZM12.5808 25.8715C12.7155 25.9277 12.8376 26.0103 12.9397 26.1147L18.3308 31.4943C18.4167 31.5695 18.4768 31.6698 18.5027 31.7811C18.5285 31.8923 18.5188 32.0089 18.4748 32.1143C18.4309 32.2197 18.355 32.3086 18.2578 32.3685C18.1607 32.4284 18.0472 32.4563 17.9333 32.4481H-9.29458C-9.44047 32.449 -9.58511 32.4205 -9.71983 32.3643C-9.8545 32.3081 -9.97659 32.2254 -10.0787 32.1211L-15.459 26.7415C-15.5434 26.6671 -15.6028 26.5684 -15.6289 26.4589C-15.655 26.3493 -15.6466 26.2344 -15.6049 26.1298C-15.5631 26.0253 -15.49 25.9363 -15.3956 25.875C-15.3012 25.8137 -15.1902 25.7832 -15.0778 25.7876H12.1555C12.3015 25.7868 12.4461 25.8153 12.5808 25.8715Z" fill="#B0B0B0"/>
</g>
<defs>
<clipPath id="clip0_2_1987">
<rect width="126.99" height="58.8652" fill="white" transform="translate(0.465576)"/>
</clipPath>
</defs>
</svg>
