<svg width="40" height="41" viewBox="0 0 40 41" fill="none" xmlns="http://www.w3.org/2000/svg">
<path fill-rule="evenodd" clip-rule="evenodd" d="M16.6959 13.8698C16.6959 13.7041 16.7618 13.5451 16.879 13.4279C16.9962 13.3107 17.1552 13.2448 17.3209 13.2448C17.4867 13.2448 17.6457 13.3107 17.7629 13.4279C17.8801 13.5451 17.9459 13.7041 17.9459 13.8698V15.9668L19.2699 16.7312C19.4096 16.8151 19.5108 16.9505 19.5518 17.1082C19.5927 17.266 19.5702 17.4335 19.489 17.5748C19.4078 17.7161 19.2744 17.8199 19.1175 17.8639C18.9606 17.908 18.7927 17.8887 18.6498 17.8103L17.0612 16.893C16.9522 16.8432 16.8599 16.7632 16.7951 16.6624C16.7304 16.5616 16.696 16.4443 16.696 16.3245V13.8698H16.6959ZM12.1552 16.9495C11.9895 16.9495 11.8305 16.8837 11.7133 16.7665C11.5961 16.6493 11.5302 16.4903 11.5302 16.3245C11.5302 16.1588 11.5961 15.9998 11.7133 15.8826C11.8305 15.7654 11.9895 15.6995 12.1552 15.6995H12.7152C12.8809 15.6995 13.0399 15.7654 13.1571 15.8826C13.2743 15.9998 13.3402 16.1588 13.3402 16.3245C13.3402 16.4903 13.2743 16.6493 13.1571 16.7665C13.0399 16.8837 12.8809 16.9495 12.7152 16.9495H12.1552ZM17.9459 21.4902C17.9459 21.656 17.88 21.815 17.7628 21.9322C17.6456 22.0494 17.4866 22.1152 17.3209 22.1152C17.1551 22.1152 16.9961 22.0494 16.8789 21.9322C16.7617 21.815 16.6959 21.656 16.6959 21.4902V20.9303C16.6959 20.7646 16.7617 20.6056 16.8789 20.4884C16.9961 20.3712 17.1551 20.3053 17.3209 20.3053C17.4866 20.3053 17.6456 20.3712 17.7628 20.4884C17.88 20.6056 17.9459 20.7646 17.9459 20.9303V21.4902ZM22.4866 15.6996C22.6523 15.6996 22.8113 15.7655 22.9285 15.8827C23.0457 15.9999 23.1116 16.1588 23.1116 16.3246C23.1116 16.4904 23.0457 16.6493 22.9285 16.7666C22.8113 16.8838 22.6523 16.9496 22.4866 16.9496H21.9266C21.7609 16.9496 21.6019 16.8838 21.4847 16.7666C21.3675 16.6493 21.3016 16.4904 21.3016 16.3246C21.3016 16.1588 21.3675 15.9999 21.4847 15.8827C21.6019 15.7655 21.7609 15.6996 21.9266 15.6996H22.4866ZM13.2263 13.1137C13.1683 13.0557 13.1223 12.9868 13.0908 12.911C13.0594 12.8352 13.0433 12.7539 13.0433 12.6719C13.0433 12.5898 13.0594 12.5085 13.0908 12.4327C13.1223 12.3569 13.1683 12.288 13.2263 12.23C13.2844 12.172 13.3532 12.1259 13.4291 12.0945C13.5049 12.0631 13.5861 12.0469 13.6682 12.0469C13.7503 12.0469 13.8315 12.0631 13.9073 12.0945C13.9832 12.1259 14.0521 12.172 14.1101 12.23L14.506 12.6259C14.5641 12.684 14.6101 12.7528 14.6415 12.8287C14.6729 12.9045 14.6891 12.9857 14.6891 13.0678C14.6891 13.1499 14.6729 13.2311 14.6415 13.307C14.6101 13.3828 14.5641 13.4517 14.506 13.5097C14.448 13.5677 14.3791 13.6138 14.3033 13.6452C14.2275 13.6766 14.1462 13.6927 14.0641 13.6927C13.9821 13.6927 13.9008 13.6766 13.825 13.6452C13.7492 13.6138 13.6803 13.5677 13.6223 13.5097L13.2263 13.1137ZM14.1101 20.4191C14.0521 20.4772 13.9832 20.5232 13.9073 20.5546C13.8315 20.586 13.7503 20.6022 13.6682 20.6022C13.5861 20.6022 13.5049 20.586 13.4291 20.5546C13.3532 20.5232 13.2844 20.4772 13.2263 20.4191C13.1683 20.3611 13.1223 20.2922 13.0908 20.2164C13.0594 20.1406 13.0433 20.0593 13.0433 19.9773C13.0433 19.8952 13.0594 19.8139 13.0908 19.7381C13.1223 19.6623 13.1683 19.5934 13.2263 19.5354L13.6223 19.1395C13.6803 19.0814 13.7492 19.0354 13.825 19.004C13.9008 18.9726 13.9821 18.9564 14.0641 18.9564C14.1462 18.9564 14.2275 18.9726 14.3033 19.004C14.3791 19.0354 14.448 19.0814 14.506 19.1395C14.5641 19.1975 14.6101 19.2664 14.6415 19.3422C14.6729 19.418 14.6891 19.4993 14.6891 19.5813C14.6891 19.6634 14.6729 19.7447 14.6415 19.8205C14.6101 19.8963 14.5641 19.9652 14.506 20.0232L14.1101 20.4191ZM21.4155 19.5353C21.4735 19.5933 21.5195 19.6622 21.5509 19.738C21.5824 19.8139 21.5985 19.8951 21.5985 19.9772C21.5985 20.0593 21.5824 20.1405 21.5509 20.2163C21.5195 20.2922 21.4735 20.361 21.4155 20.4191C21.3574 20.4771 21.2886 20.5231 21.2127 20.5545C21.1369 20.586 21.0557 20.6021 20.9736 20.6021C20.8915 20.6021 20.8103 20.586 20.7344 20.5545C20.6586 20.5231 20.5897 20.4771 20.5317 20.4191L20.1358 20.0231C20.0777 19.9651 20.0317 19.8962 20.0003 19.8204C19.9689 19.7446 19.9527 19.6633 19.9527 19.5813C19.9527 19.4992 19.9689 19.4179 20.0003 19.3421C20.0317 19.2663 20.0777 19.1974 20.1358 19.1394C20.1938 19.0813 20.2627 19.0353 20.3385 19.0039C20.4143 18.9725 20.4956 18.9563 20.5777 18.9563C20.6597 18.9563 20.741 18.9725 20.8168 19.0039C20.8926 19.0353 20.9615 19.0813 21.0195 19.1394L21.4155 19.5353ZM20.5317 12.23C20.5897 12.172 20.6586 12.1259 20.7344 12.0945C20.8103 12.0631 20.8915 12.0469 20.9736 12.0469C21.0557 12.0469 21.1369 12.0631 21.2127 12.0945C21.2886 12.1259 21.3574 12.172 21.4155 12.23C21.4735 12.288 21.5195 12.3569 21.5509 12.4327C21.5824 12.5085 21.5985 12.5898 21.5985 12.6719C21.5985 12.7539 21.5824 12.8352 21.5509 12.911C21.5195 12.9868 21.4735 13.0557 21.4155 13.1137L21.0195 13.5097C20.9615 13.5677 20.8926 13.6138 20.8168 13.6452C20.741 13.6766 20.6597 13.6927 20.5777 13.6927C20.4956 13.6927 20.4143 13.6766 20.3385 13.6452C20.2627 13.6138 20.1938 13.5677 20.1358 13.5097C20.0777 13.4517 20.0317 13.3828 20.0003 13.307C19.9689 13.2311 19.9527 13.1499 19.9527 13.0678C19.9527 12.9857 19.9689 12.9045 20.0003 12.8287C20.0317 12.7528 20.0777 12.684 20.1358 12.6259L20.5317 12.23ZM16.6959 11.1589C16.6959 10.9931 16.7618 10.8342 16.879 10.717C16.9962 10.5998 17.1552 10.5339 17.3209 10.5339C17.4867 10.5339 17.6457 10.5998 17.7629 10.717C17.8801 10.8342 17.9459 10.9931 17.9459 11.1589V11.7188C17.9459 11.8846 17.8801 12.0436 17.7629 12.1608C17.6457 12.278 17.4867 12.3438 17.3209 12.3438C17.1552 12.3438 16.9962 12.278 16.879 12.1608C16.7618 12.0436 16.6959 11.8846 16.6959 11.7188V11.1589ZM26.4158 11.1391H23.8404C22.3141 9.22273 19.9612 7.99414 17.3209 7.99414C14.6807 7.99414 12.3277 9.22273 10.8014 11.1391H4.45594C4.29018 11.1391 4.13121 11.2049 4.014 11.3221C3.89679 11.4393 3.83094 11.5983 3.83094 11.7641C3.83094 11.9298 3.89679 12.0888 4.014 12.206C4.13121 12.3232 4.29018 12.3891 4.45594 12.3891H7.91969C8.52664 12.3891 9.0232 12.8856 9.0232 13.4926C9.0232 14.0995 8.52664 14.5961 7.91969 14.5961H1.5625C1.39674 14.5961 1.23777 14.6619 1.12056 14.7792C1.00335 14.8964 0.9375 15.0553 0.9375 15.2211C0.9375 15.3869 1.00335 15.5458 1.12056 15.663C1.23777 15.7802 1.39674 15.8461 1.5625 15.8461H6.93039C7.53734 15.8461 8.03391 16.3427 8.03391 16.9496C8.03391 17.5566 7.53734 18.0531 6.93039 18.0531H3.32172C3.15596 18.0531 2.99699 18.119 2.87978 18.2362C2.76257 18.3534 2.69672 18.5124 2.69672 18.6781C2.69672 18.8439 2.76257 19.0029 2.87978 19.1201C2.99699 19.2373 3.15596 19.3031 3.32172 19.3031H8.51156C9.11852 19.3031 9.61508 19.7997 9.61508 20.4066C9.61508 21.0136 9.11852 21.5102 8.51156 21.5102H1.5625C1.39674 21.5102 1.23777 21.576 1.12056 21.6932C1.00335 21.8104 0.9375 21.9694 0.9375 22.1352C0.9375 22.3009 1.00335 22.4599 1.12056 22.5771C1.23777 22.6943 1.39674 22.7602 1.5625 22.7602H6.93039V29.9912C6.93039 30.7048 7.51242 31.2867 8.22602 31.2867H10.9066C10.9066 29.1656 12.6269 27.4455 14.7479 27.4455C16.8689 27.4455 18.5892 29.1656 18.5892 31.2867H27.7113V12.4347C27.7114 11.7212 27.1293 11.1391 26.4158 11.1391ZM17.3209 22.8126C13.7378 22.8126 10.8329 19.9077 10.8329 16.3246C10.8329 12.7414 13.7377 9.83656 17.3209 9.83656C20.9041 9.83656 23.8089 12.7414 23.8089 16.3246C23.8089 19.9077 20.9041 22.8126 17.3209 22.8126ZM37.9403 26.6158H39.0625V22.8284C39.0625 22.6364 39.0288 22.4723 38.9528 22.2932L36.3829 16.2421C36.136 15.6609 35.5537 15.2968 34.871 15.2968H28.9613V31.2866H29.5456C29.5456 29.1655 31.2658 27.4453 33.3869 27.4453C35.508 27.4453 37.2281 29.1655 37.2281 31.2866H38.0906C38.6259 31.2866 39.0623 30.8501 39.0623 30.3148V28.9806H37.9402C37.6935 28.9806 37.4922 28.7795 37.4922 28.5327V27.0637C37.4923 26.817 37.6936 26.6158 37.9403 26.6158ZM29.703 22.3448V17.2886H34.6635L36.8109 22.3448H29.703ZM14.748 28.6954C13.3168 28.6954 12.1567 29.8555 12.1567 31.2866C12.1567 32.7178 13.3169 33.8779 14.748 33.8779C16.1791 33.8779 17.3393 32.7177 17.3393 31.2866C17.3392 29.8555 16.1791 28.6954 14.748 28.6954ZM14.748 32.1696C14.26 32.1696 13.8651 31.7747 13.8651 31.2867C13.8651 30.7988 14.26 30.4038 14.748 30.4038C15.2359 30.4038 15.6309 30.7988 15.6309 31.2867C15.6308 31.7746 15.2359 32.1696 14.748 32.1696ZM33.387 28.6954C31.9558 28.6954 30.7957 29.8555 30.7957 31.2866C30.7957 32.7178 31.9559 33.8779 33.387 33.8779C34.8181 33.8779 35.9782 32.7177 35.9782 31.2866C35.9783 29.8555 34.8181 28.6954 33.387 28.6954ZM33.387 32.1696C32.899 32.1696 32.5041 31.7747 32.5041 31.2867C32.5041 30.7988 32.899 30.4038 33.387 30.4038C33.8749 30.4038 34.2698 30.7988 34.2698 31.2867C34.2698 31.7746 33.8749 32.1696 33.387 32.1696Z" fill="url(#paint0_linear_2_2616)"/>
<defs>
<linearGradient id="paint0_linear_2_2616" x1="20" y1="20.936" x2="19.2048" y2="42.6318" gradientUnits="userSpaceOnUse">
<stop stop-color="#966C9E"/>
<stop offset="1" stop-color="#F3B880"/>
</linearGradient>
</defs>
</svg>
