<svg width="32" height="33" viewBox="0 0 32 33" fill="none" xmlns="http://www.w3.org/2000/svg">
<g clip-path="url(#clip0_2_2046)">
<path d="M6.02025 22.5136C6.02025 22.3976 6.06634 22.2863 6.14839 22.2043C6.23044 22.1222 6.34172 22.0761 6.45775 22.0761H17.0349C17.1509 22.0761 17.2622 22.1222 17.3442 22.2043C17.4263 22.2863 17.4724 22.3976 17.4724 22.5136C17.4724 22.6297 17.4263 22.7409 17.3442 22.823C17.2622 22.905 17.1509 22.9511 17.0349 22.9511H6.45775C6.34172 22.9511 6.23044 22.905 6.14839 22.823C6.06634 22.7409 6.02025 22.6297 6.02025 22.5136ZM6.45775 19.7076H14.1846C14.3007 19.7076 14.4119 19.6615 14.494 19.5795C14.576 19.4974 14.6221 19.3862 14.6221 19.2701C14.6221 19.1541 14.576 19.0428 14.494 18.9608C14.4119 18.8787 14.3007 18.8326 14.1846 18.8326H6.45775C6.34172 18.8326 6.23044 18.8787 6.14839 18.9608C6.06634 19.0428 6.02025 19.1541 6.02025 19.2701C6.02025 19.3862 6.06634 19.4974 6.14839 19.5795C6.23044 19.6615 6.34172 19.7076 6.45775 19.7076ZM24.3653 26.0981V31.2893C24.3653 31.8482 23.9107 32.3028 23.3518 32.3028H16.3788C15.8199 32.3028 15.3653 31.8482 15.3653 31.2893V28.1193C14.2044 28.389 12.9899 28.5259 11.7463 28.5259C11.2308 28.5259 10.7127 28.5017 10.2037 28.4541L4.80006 32.2242C4.72753 32.2748 4.64133 32.3023 4.55286 32.3029C4.46438 32.3035 4.37781 32.2773 4.30456 32.2277C4.23131 32.1781 4.1748 32.1075 4.14248 32.0251C4.11017 31.9428 4.10357 31.8526 4.12356 31.7664L5.20837 27.0932C2.29187 25.6624 0.5625 23.3643 0.5625 20.8919C0.5625 19.1962 1.3525 17.5935 2.84706 16.2569C4.27694 14.9782 6.22269 14.0555 8.474 13.5885C8.58743 13.5654 8.70541 13.5882 8.80208 13.6518C8.89875 13.7155 8.96624 13.815 8.98975 13.9283C9.01327 14.0417 8.9909 14.1597 8.92755 14.2566C8.86419 14.3535 8.76502 14.4213 8.65175 14.4452C6.58112 14.8747 4.72675 15.7498 3.43038 16.9091C2.12663 18.0751 1.4375 19.4522 1.4375 20.8919C1.4375 23.1021 3.10406 25.1799 5.89556 26.4501C5.98752 26.4919 6.06216 26.5643 6.10681 26.6549C6.15146 26.7456 6.16337 26.8488 6.1405 26.9472L5.23344 30.8548L9.83556 27.6439C9.92175 27.5839 10.0266 27.5568 10.1311 27.5676C10.6677 27.623 11.2068 27.6508 11.7463 27.6507C12.9943 27.6507 14.2099 27.5054 15.3653 27.2192V26.098C15.3653 25.5391 15.8199 25.0845 16.3788 25.0845H19.8178C21.2617 23.8917 22.0551 22.4079 22.0551 20.8918C22.0551 19.2719 21.1576 17.7016 19.5278 16.47C19.4813 16.4356 19.4421 16.3923 19.4124 16.3427C19.3828 16.2931 19.3632 16.238 19.355 16.1808C19.3467 16.1236 19.3499 16.0653 19.3643 16.0093C19.3787 15.9533 19.4041 15.9007 19.4389 15.8545C19.4738 15.8084 19.5175 15.7696 19.5674 15.7405C19.6173 15.7113 19.6726 15.6924 19.7299 15.6847C19.7872 15.677 19.8454 15.6808 19.9013 15.6957C19.9571 15.7107 20.0095 15.7366 20.0553 15.7719C21.9091 17.1728 22.9301 18.9911 22.9301 20.8918C22.9301 22.3914 22.2886 23.8487 21.1032 25.0845H23.3517C23.9106 25.0845 24.3653 25.5392 24.3653 26.0981ZM23.4903 26.0981C23.4903 26.023 23.4269 25.9596 23.3518 25.9596H16.3788C16.3038 25.9596 16.2403 26.023 16.2403 26.0981V31.2893C16.2403 31.3644 16.3038 31.4278 16.3788 31.4278H23.3518C23.4269 31.4278 23.4903 31.3644 23.4903 31.2893V26.0981ZM21.5511 28.6936C21.5511 28.7704 21.5309 28.8459 21.4925 28.9124C21.4541 28.9789 21.3988 29.0341 21.3323 29.0725L18.8358 30.5138C18.7693 30.5522 18.6939 30.5724 18.6171 30.5724C18.5403 30.5724 18.4648 30.5522 18.3983 30.5138C18.3318 30.4754 18.2766 30.4202 18.2382 30.3537C18.1998 30.2872 18.1796 30.2117 18.1796 30.1349V27.2522C18.1795 27.1754 18.1998 27.1 18.2381 27.0335C18.2765 26.9669 18.3318 26.9117 18.3983 26.8733C18.4648 26.8349 18.5403 26.8147 18.6171 26.8147C18.6939 26.8147 18.7693 26.835 18.8358 26.8734L21.3323 28.3147C21.3988 28.3531 21.454 28.4084 21.4924 28.4749C21.5308 28.5414 21.5511 28.6168 21.5511 28.6936ZM20.2386 28.6936L19.0546 28.0101V29.3772L20.2386 28.6936ZM28.5822 6.00043C28.6589 6.00045 28.7342 5.9802 28.8006 5.94174L30.4902 4.96624C30.5404 4.93773 30.5844 4.89957 30.6198 4.85397C30.6551 4.80837 30.6811 4.75623 30.6962 4.70055C30.7113 4.64486 30.7153 4.58674 30.7079 4.52953C30.7004 4.47231 30.6817 4.41713 30.6529 4.36716C30.624 4.3172 30.5856 4.27343 30.5398 4.23838C30.4939 4.20333 30.4416 4.1777 30.3858 4.16295C30.3301 4.1482 30.2719 4.14463 30.2147 4.15245C30.1576 4.16027 30.1025 4.17931 30.0527 4.20849L28.3631 5.18399C28.2796 5.23215 28.2144 5.30652 28.1775 5.39554C28.1406 5.48457 28.1342 5.58328 28.1592 5.67634C28.1842 5.7694 28.2392 5.85162 28.3156 5.91022C28.3921 5.96882 28.4858 6.00053 28.5822 6.00043ZM25.7659 4.02656C25.8156 4.05532 25.8705 4.074 25.9275 4.08152C25.9845 4.08904 26.0424 4.08526 26.0979 4.07039C26.1534 4.05552 26.2054 4.02985 26.251 3.99485C26.2966 3.95985 26.3348 3.91622 26.3635 3.86643L27.3926 2.08406C27.4217 2.03428 27.4408 1.97923 27.4486 1.92206C27.4564 1.8649 27.4529 1.80675 27.4381 1.75097C27.4234 1.69519 27.3977 1.64287 27.3627 1.59704C27.3276 1.55121 27.2839 1.51276 27.2339 1.48391C27.1839 1.45506 27.1287 1.43638 27.0715 1.42894C27.0143 1.42151 26.9562 1.42546 26.9005 1.44058C26.8448 1.45569 26.7927 1.48168 26.7471 1.51703C26.7015 1.55238 26.6633 1.5964 26.6348 1.64656L25.6057 3.42893C25.5477 3.52942 25.532 3.64883 25.562 3.76091C25.5921 3.87298 25.6654 3.96854 25.7659 4.02656ZM28.5044 8.76968C28.5044 8.88571 28.5505 8.99699 28.6325 9.07904C28.7146 9.16109 28.8258 9.20718 28.9419 9.20718H31C31.116 9.20718 31.2273 9.16109 31.3094 9.07904C31.3914 8.99699 31.4375 8.88571 31.4375 8.76968C31.4375 8.65365 31.3914 8.54237 31.3094 8.46032C31.2273 8.37828 31.116 8.33218 31 8.33218H28.9419C28.8258 8.33218 28.7146 8.37828 28.6325 8.46032C28.5505 8.54237 28.5044 8.65365 28.5044 8.76968ZM9.96906 13.5711C10.2017 12.7027 10.7559 11.9786 11.5296 11.5319L13.818 10.2107C13.8677 10.182 13.9227 10.1633 13.9796 10.1558C14.0366 10.1483 14.0945 10.1521 14.15 10.167C14.1938 10.1788 14.2355 10.1974 14.2736 10.222C16.6253 8.46193 18.4797 6.42431 19.542 4.42993L19.5018 4.36024C19.006 3.50162 19.3013 2.39974 20.1599 1.90393C21.0186 1.40824 22.1204 1.70349 22.6162 2.56206L24.4014 5.65418C25.3497 5.16362 26.5296 5.50218 27.0689 6.43631C27.6081 7.37037 27.3114 8.56131 26.4125 9.13743L28.1978 12.2296C28.4372 12.6442 28.5004 13.1286 28.3758 13.5936C28.2512 14.0586 27.9543 14.4465 27.5396 14.6859C27.2682 14.8434 26.96 14.9263 26.6462 14.9264C26.4894 14.9264 26.3314 14.9057 26.1756 14.864C25.7106 14.7394 25.3227 14.4424 25.0833 14.0278L25.0431 13.9581C22.8046 13.8815 20.1396 14.4578 17.463 15.5946L20.6219 19.8466C20.9371 20.271 20.8818 20.8569 20.4932 21.2096L19.7983 21.8402C19.693 21.9355 19.569 22.0078 19.4343 22.0526C19.2995 22.0973 19.1569 22.1135 19.0155 22.1001C18.8761 22.0866 18.7411 22.0442 18.619 21.9755C18.4969 21.9069 18.3905 21.8136 18.3065 21.7015L15.0017 17.2794L14.8864 17.3459C14.3722 17.6428 13.8003 17.7945 13.2196 17.7945C12.9226 17.7942 12.627 17.755 12.3402 17.6779C11.4719 17.4452 10.7478 16.891 10.3011 16.1173C9.85431 15.3436 9.73644 14.4393 9.96906 13.5711ZM19.9194 20.3684L16.8372 16.2196L15.7648 16.8387L19.0074 21.1777C19.0182 21.1924 19.032 21.2046 19.0479 21.2134C19.0638 21.2223 19.0814 21.2276 19.0996 21.2291C19.1232 21.2314 19.1689 21.2296 19.2103 21.1921L19.9051 20.5616C19.9597 20.512 19.9658 20.4307 19.9194 20.3684ZM24.8401 6.41406L25.9738 8.37762C26.4551 8.04406 26.6091 7.38987 26.3111 6.87381C26.0132 6.35781 25.3696 6.16406 24.8401 6.41406ZM20.2595 3.92274L25.841 13.5902C25.9636 13.8025 26.1628 13.9547 26.402 14.0187C26.6412 14.0827 26.8897 14.0507 27.1021 13.9281C27.3143 13.8056 27.4665 13.6064 27.5306 13.3672C27.5947 13.128 27.5625 12.8794 27.44 12.6671L21.8584 2.99962C21.6877 2.70381 21.3767 2.53824 21.0574 2.53824C20.9009 2.53824 20.7424 2.57799 20.5974 2.66174C20.3852 2.78424 20.233 2.98349 20.1689 3.22268C20.1049 3.46187 20.137 3.71049 20.2595 3.92274ZM14.7534 10.9558L16.9971 14.8422C19.6213 13.7117 22.2536 13.097 24.5345 13.0773L20.0505 5.31062C18.8931 7.27606 17.0445 9.24849 14.7534 10.9558ZM11.0588 15.6797C11.3886 16.2511 11.9241 16.6605 12.5666 16.8326C13.209 17.0048 13.8775 16.9179 14.4488 16.5881L16.3583 15.4857L13.8766 11.1872L11.9671 12.2896C11.3958 12.6194 10.9864 13.1549 10.8142 13.7974C10.642 14.4399 10.7289 15.1085 11.0588 15.6797ZM2.96269 6.48537C2.96269 5.02012 4.15475 3.82799 5.62006 3.82799C7.08537 3.82799 8.27744 5.02006 8.27744 6.48537C8.27744 7.95062 7.08537 9.14268 5.62006 9.14268C4.15475 9.14268 2.96269 7.95062 2.96269 6.48537ZM3.83769 6.48537C3.83769 7.46818 4.63725 8.26768 5.62006 8.26768C6.60287 8.26768 7.40244 7.46818 7.40244 6.48537C7.40244 5.50256 6.60287 4.70299 5.62006 4.70299C4.63725 4.70299 3.83769 5.50256 3.83769 6.48537ZM0.5625 6.94737V6.02337C0.5625 5.61474 0.894875 5.28237 1.30344 5.28237C1.66531 5.28237 1.80806 5.00574 1.84312 4.92093C1.87825 4.83612 1.973 4.53956 1.71706 4.28368C1.64803 4.21505 1.5933 4.1334 1.55604 4.04346C1.51878 3.95353 1.49973 3.85709 1.5 3.75974C1.5 3.56181 1.57706 3.37568 1.71706 3.23574L2.37037 2.58237C2.65925 2.29343 3.12937 2.29343 3.41831 2.58237C3.67425 2.83831 3.97081 2.74356 4.05556 2.70843C4.14037 2.67331 4.417 2.53062 4.417 2.16874C4.417 1.76012 4.74937 1.42774 5.15794 1.42774H6.08194C6.4905 1.42774 6.82288 1.76012 6.82288 2.16874C6.82288 2.53062 7.0995 2.67331 7.18431 2.70843C7.26906 2.74356 7.56575 2.83818 7.82156 2.58237C8.1105 2.29343 8.58056 2.29343 8.8695 2.58237L9.52287 3.23574C9.66281 3.37568 9.73987 3.56174 9.73987 3.75968C9.73987 3.95762 9.66281 4.14374 9.52281 4.28368C9.26694 4.53956 9.36169 4.83612 9.39681 4.92093C9.43194 5.00568 9.57463 5.28237 9.9365 5.28237C10.3451 5.28237 10.6774 5.61474 10.6774 6.02337V6.94737C10.6774 7.35593 10.3451 7.68831 9.9365 7.68831C9.57463 7.68831 9.43188 7.96493 9.39681 8.04974C9.36169 8.13449 9.26694 8.43112 9.52287 8.68699C9.81181 8.97593 9.81181 9.44606 9.52287 9.73493L8.8695 10.3883C8.72962 10.5282 8.5435 10.6054 8.34556 10.6054C8.14763 10.6054 7.9615 10.5283 7.82156 10.3883C7.56569 10.1325 7.26919 10.2271 7.18431 10.2623C7.09956 10.2974 6.82288 10.4401 6.82288 10.8021C6.82288 11.2106 6.4905 11.543 6.08194 11.543H5.15806C4.7495 11.543 4.41713 11.2106 4.41713 10.8021C4.41713 10.4394 4.14069 10.2967 4.056 10.2616C3.97119 10.2265 3.67488 10.1319 3.41844 10.3884C3.27856 10.5283 3.09244 10.6054 2.8945 10.6054C2.69656 10.6054 2.51038 10.5284 2.3705 10.3884L1.71719 9.73506C1.64815 9.66641 1.59342 9.58475 1.55616 9.4948C1.5189 9.40486 1.49985 9.30841 1.50013 9.21106C1.50013 9.01312 1.57719 8.82699 1.71719 8.68706C1.97306 8.43118 1.87831 8.13462 1.84319 8.04987C1.80806 7.96506 1.66537 7.68843 1.3035 7.68843C0.894875 7.68831 0.5625 7.35593 0.5625 6.94737ZM1.4375 6.81912C1.98069 6.86643 2.43856 7.20056 2.65156 7.71493C2.86462 8.22931 2.77713 8.78937 2.42644 9.20693L2.8985 9.67899C3.31638 9.32793 3.87656 9.24024 4.39075 9.45318C4.905 9.66618 5.239 10.1243 5.28625 10.6681H5.95375C6.00106 10.1249 6.33519 9.66699 6.84956 9.45393C7.36388 9.24099 7.92394 9.32837 8.34156 9.67899L8.81363 9.20693C8.46294 8.78937 8.3755 8.22931 8.5885 7.71493C8.80156 7.20062 9.25938 6.86643 9.80256 6.81912V6.15162C9.25938 6.10431 8.8015 5.77018 8.5885 5.25581C8.3755 4.74143 8.46294 4.18143 8.81356 3.76381L8.3415 3.29174C7.92381 3.64237 7.36381 3.72981 6.8495 3.51681C6.33519 3.30374 6.00106 2.84593 5.95375 2.30274H5.28625C5.23894 2.84593 4.90481 3.30381 4.3905 3.51681C3.87613 3.72987 3.31606 3.64237 2.8985 3.29168L2.42644 3.76374C2.77706 4.18143 2.86456 4.74143 2.6515 5.25574C2.43856 5.77018 1.98069 6.10431 1.4375 6.15162V6.81912ZM31.4031 18.451C31.2487 19.7465 30.6258 20.9789 30.2681 21.5982C29.9105 22.2176 29.1547 23.3732 28.1101 24.1547C27.4327 24.6614 26.7507 24.9163 26.0898 24.9163C25.6283 24.9163 25.1771 24.7921 24.7449 24.5425L24.5877 24.4517C24.3289 24.3023 24.1437 24.0606 24.0661 23.7711C23.9885 23.4816 24.0281 23.1796 24.1775 22.9208L24.8057 21.8327C25.1146 21.2976 25.8014 21.1136 26.3366 21.4225L26.7051 21.6352C26.8096 21.6956 26.9332 21.6752 27.0128 21.5845C27.3564 21.1927 27.6728 20.7477 27.9534 20.2618C28.2339 19.7759 28.4611 19.2792 28.6286 18.7859C28.6673 18.6717 28.6232 18.5544 28.5187 18.4941L28.1502 18.2814C27.8914 18.1319 27.7062 17.8902 27.6286 17.6007C27.551 17.3112 27.5906 17.0092 27.74 16.7504L28.3682 15.6623C28.6771 15.1272 29.3639 14.9432 29.8991 15.2521L30.0563 15.3428C31.1075 15.9497 31.5732 17.0244 31.4031 18.451ZM29.6188 16.1006L29.4617 16.0098C29.4052 15.9773 29.3382 15.9685 29.2753 15.9854C29.2123 16.0022 29.1586 16.0434 29.126 16.0997L28.4978 17.1878C28.4817 17.2157 28.4713 17.2466 28.4671 17.2786C28.463 17.3105 28.4653 17.343 28.4738 17.3741C28.482 17.4053 28.4963 17.4346 28.5158 17.4602C28.5354 17.4859 28.5599 17.5074 28.5878 17.5235L28.9563 17.7362C29.4252 18.007 29.6313 18.5542 29.4572 19.0671C29.2714 19.6146 29.0204 20.1637 28.7112 20.6992C28.4021 21.2347 28.0519 21.7266 27.6707 22.1614C27.3136 22.5687 26.7367 22.6638 26.2677 22.3931L25.8992 22.1804C25.8427 22.1478 25.7757 22.1391 25.7127 22.1559C25.6498 22.1728 25.5961 22.2139 25.5634 22.2703L24.9352 23.3584C24.9191 23.3863 24.9087 23.4171 24.9046 23.4491C24.9005 23.4811 24.9027 23.5136 24.9112 23.5447C24.9194 23.5759 24.9337 23.6052 24.9533 23.6308C24.9728 23.6564 24.9973 23.6779 25.0252 23.6941L25.1824 23.7848C25.9274 24.2149 26.7136 24.1067 27.5859 23.4541C28.5398 22.7406 29.2495 21.6126 29.5104 21.1607C29.7713 20.7089 30.3933 19.5302 30.5343 18.3474C30.6632 17.2656 30.3638 16.5307 29.6188 16.1006Z" fill="#13172F"/>
</g>
<defs>
<clipPath id="clip0_2_2046">
<rect width="32" height="32" fill="white" transform="translate(0 0.865234)"/>
</clipPath>
</defs>
</svg>
