<svg width="40" height="41" viewBox="0 0 40 41" fill="none" xmlns="http://www.w3.org/2000/svg">
<g clip-path="url(#clip0_2_2634)">
<path fill-rule="evenodd" clip-rule="evenodd" d="M20.2455 6.79039L21.505 10.1079C21.5226 10.156 21.5541 10.1977 21.5955 10.2278C21.637 10.2579 21.6864 10.275 21.7376 10.2769L25.2819 10.4496C25.3352 10.4516 25.3866 10.4701 25.429 10.5025C25.4714 10.5349 25.5027 10.5797 25.5187 10.6306C25.5357 10.6812 25.5367 10.7358 25.5214 10.787C25.5062 10.8381 25.4755 10.8833 25.4335 10.9163L22.6677 13.1393C22.6274 13.1709 22.5974 13.2138 22.5816 13.2624C22.5658 13.3111 22.5648 13.3634 22.5788 13.4127L23.5098 16.8369C23.5389 16.9441 23.5007 17.0527 23.4108 17.118C23.3209 17.1833 23.2059 17.1861 23.1128 17.1252L20.1438 15.1817C20.1013 15.1531 20.0513 15.1379 20.0001 15.1379C19.9489 15.1379 19.8989 15.1531 19.8564 15.1817L16.8875 17.1252C16.8432 17.155 16.7907 17.1702 16.7374 17.1689C16.6841 17.1676 16.6324 17.1498 16.5896 17.118C16.5461 17.0871 16.5132 17.0435 16.4955 16.9931C16.4777 16.9428 16.476 16.8882 16.4906 16.8369L17.4216 13.4127C17.4356 13.3634 17.4346 13.3111 17.4188 13.2624C17.403 13.2138 17.373 13.1709 17.3327 13.1393L14.5669 10.9163C14.5249 10.8833 14.4942 10.8381 14.4789 10.787C14.4637 10.7358 14.4646 10.6812 14.4817 10.6306C14.4976 10.5797 14.529 10.5349 14.5714 10.5025C14.6138 10.4701 14.6652 10.4516 14.7185 10.4496L18.2628 10.2769C18.314 10.275 18.3634 10.258 18.4048 10.2279C18.4463 10.1978 18.4778 10.156 18.4953 10.1079L19.7548 6.79039C19.7943 6.68648 19.889 6.62117 20.0002 6.62117C20.1113 6.62117 20.206 6.68648 20.2455 6.79039ZM13.3811 5.74672L15.598 7.74289C15.7211 7.85275 15.8828 7.90935 16.0476 7.9003C16.2124 7.89126 16.3668 7.81732 16.4772 7.69464C16.5876 7.57197 16.645 7.41057 16.6366 7.24574C16.6283 7.08092 16.5551 6.9261 16.4329 6.81516L14.216 4.81898C14.0929 4.70913 13.9312 4.65253 13.7664 4.66157C13.6016 4.67061 13.4471 4.74456 13.3367 4.86723C13.2263 4.9899 13.169 5.15131 13.1773 5.31613C13.1856 5.48096 13.2589 5.63578 13.3811 5.74672ZM25.7842 4.81898L23.5544 6.8268C23.4322 6.93774 23.3589 7.09256 23.3506 7.25738C23.3423 7.42221 23.3996 7.58361 23.51 7.70628C23.6204 7.82896 23.7749 7.9029 23.9397 7.91195C24.1045 7.92099 24.2661 7.86439 24.3893 7.75453L26.6191 5.74672C26.7413 5.63578 26.8146 5.48096 26.8229 5.31613C26.8312 5.15131 26.7739 4.9899 26.6635 4.86723C26.5531 4.74456 26.3986 4.67061 26.2338 4.66157C26.069 4.65253 25.9074 4.70913 25.7842 4.81898ZM20.6252 4.29953C20.6252 4.46529 20.5593 4.62426 20.4421 4.74147C20.3249 4.85868 20.1659 4.92453 20.0002 4.92453C19.8344 4.92453 19.6754 4.85868 19.5582 4.74147C19.441 4.62426 19.3752 4.46529 19.3752 4.29953V2.00586C19.3752 1.8401 19.441 1.68113 19.5582 1.56392C19.6754 1.44671 19.8344 1.38086 20.0002 1.38086C20.1659 1.38086 20.3249 1.44671 20.4421 1.56392C20.5593 1.68113 20.6252 1.8401 20.6252 2.00586V4.29953ZM20.0002 19.1306C22.422 19.1306 24.3852 21.0939 24.3852 23.5156C24.3852 25.9374 22.422 27.9007 20.0002 27.9007C17.5784 27.9007 15.6152 25.9374 15.6152 23.5156C15.6152 21.0938 17.5784 19.1306 20.0002 19.1306ZM28.623 36.4216C28.1573 32.0706 24.4746 28.682 20.0002 28.682C15.5256 28.682 11.8429 32.0706 11.3773 36.4216V38.1746C11.3773 39.4512 12.4184 40.4923 13.695 40.4923H26.3052C27.5818 40.4923 28.623 39.4512 28.623 38.1746V36.4216ZM33.1055 22.315C34.9173 22.315 36.386 23.7838 36.386 25.5955C36.386 27.4073 34.9173 28.8761 33.1055 28.8761C31.2937 28.8761 29.8249 27.4073 29.8249 25.5955C29.8248 23.7838 31.2936 22.315 33.1055 22.315ZM6.89484 22.315C8.70664 22.315 10.1754 23.7838 10.1754 25.5955C10.1754 27.4073 8.70664 28.8761 6.89484 28.8761C5.08304 28.8761 3.61429 27.4073 3.61429 25.5955C3.61429 23.7838 5.08304 22.315 6.89484 22.315ZM6.89476 29.7524C8.80664 29.7524 10.5253 30.5793 11.7128 31.8949C10.8748 33.1638 10.3191 34.6405 10.14 36.2409H2.11234C1.62585 36.2409 1.20726 36.0295 0.918588 35.6379C0.629917 35.2463 0.551713 34.7839 0.69562 34.3191C1.51476 31.6739 3.98046 29.7524 6.89476 29.7524ZM33.1054 29.7524C36.0198 29.7524 38.4855 31.6739 39.3045 34.3191C39.4484 34.7839 39.3702 35.2463 39.0816 35.6379C38.7929 36.0295 38.3744 36.2409 37.8878 36.2409H29.8602C29.6811 34.6405 29.1253 33.1639 28.2873 31.8949C29.4749 30.5793 31.1936 29.7524 33.1054 29.7524ZM6.40226 6.79039L7.66179 10.1079C7.67938 10.156 7.7109 10.1977 7.75232 10.2278C7.79375 10.2579 7.8432 10.275 7.89437 10.2769L11.4387 10.4496C11.492 10.4516 11.5434 10.4701 11.5858 10.5025C11.6282 10.5349 11.6595 10.5797 11.6755 10.6306C11.6925 10.6812 11.6935 10.7358 11.6782 10.787C11.663 10.8381 11.6323 10.8833 11.5903 10.9163L8.82445 13.1393C8.78416 13.1709 8.7542 13.2138 8.73837 13.2624C8.72255 13.3111 8.72159 13.3634 8.73562 13.4127L9.66656 16.8369C9.6957 16.9441 9.65749 17.0527 9.56757 17.118C9.47765 17.1833 9.36265 17.1861 9.2696 17.1252L6.30062 15.1817C6.25814 15.1531 6.20811 15.1379 6.15691 15.1379C6.10571 15.1379 6.05568 15.1531 6.0132 15.1817L3.04429 17.1252C2.99997 17.155 2.94754 17.1702 2.89419 17.1689C2.84085 17.1676 2.78922 17.1498 2.7464 17.118C2.70288 17.0871 2.66999 17.0435 2.65226 16.9931C2.63454 16.9428 2.63284 16.8882 2.64742 16.8369L3.57835 13.4127C3.59238 13.3634 3.59142 13.3111 3.5756 13.2624C3.55978 13.2138 3.52981 13.1709 3.48953 13.1393L0.723667 10.9162C0.681682 10.8832 0.650949 10.838 0.635699 10.7869C0.620448 10.7357 0.621431 10.6811 0.63851 10.6305C0.65444 10.5796 0.685759 10.5349 0.728163 10.5024C0.770567 10.47 0.821971 10.4515 0.875307 10.4495L4.4196 10.2768C4.47077 10.2749 4.52022 10.2579 4.56164 10.2278C4.60305 10.1977 4.63455 10.1559 4.6521 10.1078L5.91171 6.79039C5.95117 6.68648 6.04585 6.62117 6.15703 6.62117C6.2682 6.62117 6.36281 6.68648 6.40226 6.79039ZM34.0473 6.79039L35.3068 10.1079C35.3244 10.156 35.3559 10.1977 35.3973 10.2278C35.4387 10.2579 35.4882 10.275 35.5394 10.2769L39.0837 10.4496C39.137 10.4516 39.1884 10.4701 39.2308 10.5025C39.2732 10.5349 39.3045 10.5797 39.3205 10.6306C39.3375 10.6812 39.3385 10.7358 39.3232 10.787C39.308 10.8381 39.2773 10.8833 39.2353 10.9163L36.4694 13.1393C36.4292 13.1709 36.3992 13.2138 36.3834 13.2624C36.3676 13.3111 36.3666 13.3634 36.3806 13.4127L37.3116 16.8369C37.3261 16.8882 37.3244 16.9428 37.3067 16.9931C37.289 17.0435 37.2562 17.0871 37.2127 17.118C37.1698 17.1498 37.1182 17.1676 37.0648 17.1689C37.0115 17.1702 36.959 17.155 36.9147 17.1252L33.9457 15.1817C33.9032 15.1531 33.8532 15.1379 33.802 15.1379C33.7508 15.1379 33.7008 15.1531 33.6583 15.1817L30.6894 17.1252C30.5964 17.1861 30.4813 17.1833 30.3914 17.118C30.3015 17.0527 30.2633 16.9441 30.2924 16.8369L31.2234 13.4127C31.2374 13.3634 31.2364 13.3111 31.2206 13.2624C31.2048 13.2138 31.1748 13.1709 31.1345 13.1393L28.3687 10.9163C28.3267 10.8833 28.296 10.8381 28.2807 10.787C28.2654 10.7358 28.2664 10.6812 28.2835 10.6306C28.2994 10.5797 28.3308 10.5349 28.3732 10.5025C28.4156 10.4701 28.467 10.4516 28.5203 10.4496L32.0646 10.2769C32.1158 10.275 32.1652 10.258 32.2066 10.2279C32.2481 10.1978 32.2796 10.156 32.2971 10.1079L33.5566 6.79039C33.5961 6.68648 33.6908 6.62117 33.802 6.62117C33.9131 6.62117 34.0078 6.68648 34.0473 6.79039Z" fill="url(#paint0_linear_2_2634)"/>
</g>
<defs>
<linearGradient id="paint0_linear_2_2634" x1="19.9999" y1="20.9366" x2="18.2165" y2="53.6667" gradientUnits="userSpaceOnUse">
<stop stop-color="#966C9E"/>
<stop offset="1" stop-color="#F3B880"/>
</linearGradient>
<clipPath id="clip0_2_2634">
<rect width="40" height="40" fill="white" transform="translate(0 0.936523)"/>
</clipPath>
</defs>
</svg>
