<svg width="32" height="33" viewBox="0 0 32 33" fill="none" xmlns="http://www.w3.org/2000/svg">
<g clip-path="url(#clip0_2_2055)">
<path d="M29.6063 19.7401L27.1675 15.5161C27.1106 15.4175 27.0217 15.3413 26.9157 15.3001L21.7665 13.298C21.9304 12.7444 22.0135 12.1699 22.0132 11.5925C22.0132 8.27723 19.316 5.58005 16.0007 5.58005C12.6854 5.58005 9.98823 8.27723 9.98823 11.5925C9.98792 12.1699 10.071 12.7444 10.235 13.298L5.08579 15.3001C4.97971 15.3413 4.89088 15.4175 4.83398 15.5161L2.39516 19.7401C2.3591 19.8025 2.33696 19.872 2.33028 19.9438C2.32359 20.0156 2.33252 20.088 2.35644 20.156C2.38036 20.224 2.41871 20.2861 2.46886 20.3379C2.51901 20.3897 2.57977 20.43 2.64698 20.4561L4.76691 21.2804V28.1604C4.76692 28.2612 4.79737 28.3596 4.85427 28.4427C4.91117 28.5259 4.99187 28.5899 5.08579 28.6264L15.8195 32.8C15.936 32.8453 16.0653 32.8453 16.1819 32.8L26.9155 28.6264C27.0095 28.5899 27.0902 28.5259 27.1471 28.4427C27.204 28.3596 27.2344 28.2612 27.2344 28.1604V21.2804L29.3544 20.4561C29.4215 20.43 29.4823 20.3896 29.5324 20.3378C29.5826 20.286 29.6209 20.224 29.6448 20.156C29.6688 20.088 29.6777 20.0156 29.6711 19.9438C29.6645 19.872 29.6423 19.8025 29.6063 19.7401ZM16.0008 6.58005C18.7647 6.58005 21.0133 8.82867 21.0133 11.5925C21.0133 14.3564 18.7647 16.605 16.0008 16.605C13.2369 16.605 10.9883 14.3564 10.9883 11.5925C10.9883 8.82867 13.2369 6.58005 16.0008 6.58005ZM16.0008 17.605C18.3832 17.605 20.4464 16.2122 21.4188 14.1981L25.3648 15.7622L16.0008 19.4032L6.63673 15.7622L10.5827 14.1981C11.5552 16.2122 13.6184 17.605 16.0008 17.605ZM3.55273 19.7353L5.4856 16.3875L15.2763 20.1945L13.3434 23.5423L3.55273 19.7353ZM5.76704 21.6692L13.3809 24.6297C13.4922 24.673 13.6153 24.675 13.7279 24.6354C13.8406 24.5957 13.9353 24.5171 13.995 24.4137L15.5008 21.8057V31.6031L5.76704 27.8184V21.6692ZM26.2345 27.8184L16.5008 31.6031V21.8057L18.0065 24.4138C18.0663 24.5172 18.161 24.5958 18.2737 24.6354C18.3863 24.6751 18.5094 24.6731 18.6207 24.6298L26.2345 21.6693V27.8184ZM18.6582 23.5423L16.7252 20.1945L26.516 16.3875L28.4489 19.7353L18.6582 23.5423ZM14.7567 14.8404C15.1029 14.8404 15.4286 14.7053 15.6739 14.46L19.5717 10.5623C20.0781 10.0558 20.0781 9.23167 19.5716 8.72505C19.3263 8.47973 19 8.34461 18.6531 8.34461C18.3062 8.34461 17.9799 8.47973 17.7345 8.72505L14.8654 11.5942L14.0997 10.6307C13.9784 10.4774 13.8239 10.3536 13.6479 10.2687C13.4719 10.1838 13.2789 10.14 13.0834 10.1405C12.7904 10.141 12.506 10.2403 12.2764 10.4224C11.7164 10.8677 11.623 11.6855 12.0682 12.2455L13.6996 14.2985C13.8202 14.4662 13.9789 14.6028 14.1627 14.6971C14.3466 14.7913 14.5502 14.8404 14.7567 14.8404ZM12.8986 11.2051C12.951 11.1631 13.0162 11.1403 13.0834 11.1404C13.1749 11.1404 13.26 11.1814 13.3167 11.2528L14.4311 12.6552C14.4749 12.7103 14.5299 12.7556 14.5925 12.788C14.655 12.8204 14.7237 12.8393 14.7941 12.8433C14.8644 12.8473 14.9348 12.8364 15.0007 12.8113C15.0665 12.7862 15.1263 12.7475 15.1761 12.6977L18.4415 9.43217C18.498 9.37567 18.5731 9.34461 18.653 9.34461C18.733 9.34461 18.808 9.37574 18.8644 9.43211C18.9204 9.48826 18.9519 9.56434 18.9519 9.64366C18.9519 9.72298 18.9205 9.79907 18.8645 9.85523L14.9668 13.7529C14.9394 13.7808 14.9067 13.803 14.8706 13.818C14.8345 13.833 14.7957 13.8407 14.7566 13.8404C14.708 13.8408 14.6601 13.8293 14.617 13.8069C14.5739 13.7844 14.537 13.7518 14.5094 13.7119C14.5035 13.7034 14.4973 13.6951 14.4909 13.687L12.851 11.6233C12.802 11.5615 12.7795 11.4827 12.7884 11.4044C12.7973 11.326 12.8369 11.2543 12.8986 11.2051ZM15.5008 3.7383V1.39648C15.5008 1.26388 15.5535 1.1367 15.6472 1.04293C15.741 0.949163 15.8682 0.896484 16.0008 0.896484C16.1334 0.896484 16.2606 0.949163 16.3543 1.04293C16.4481 1.1367 16.5008 1.26388 16.5008 1.39648V3.7383C16.5008 3.87091 16.4481 3.99808 16.3543 4.09185C16.2606 4.18562 16.1334 4.2383 16.0008 4.2383C15.8682 4.2383 15.741 4.18562 15.6472 4.09185C15.5535 3.99808 15.5008 3.87091 15.5008 3.7383ZM10.4521 2.94667C10.3858 2.83182 10.3678 2.69534 10.4022 2.56725C10.4365 2.43916 10.5203 2.32994 10.6351 2.26364C10.75 2.19734 10.8865 2.17937 11.0146 2.2137C11.1426 2.24802 11.2519 2.33182 11.3182 2.44667L12.489 4.47473C12.5553 4.58958 12.5733 4.72606 12.539 4.85416C12.5047 4.98225 12.4209 5.09146 12.306 5.15777C12.1912 5.22407 12.0547 5.24204 11.9266 5.20771C11.7985 5.17339 11.6893 5.08958 11.623 4.97473L10.4521 2.94667ZM6.67191 6.13055C6.70473 6.07367 6.74844 6.02382 6.80053 5.98384C6.85262 5.94387 6.91207 5.91454 6.9755 5.89755C7.03893 5.88055 7.10508 5.87622 7.17018 5.8848C7.23528 5.89338 7.29805 5.9147 7.35491 5.94755L9.38298 7.11842C9.49688 7.1852 9.57975 7.29431 9.61349 7.42196C9.64724 7.54961 9.62913 7.68543 9.56311 7.79977C9.49709 7.91411 9.38853 7.9977 9.26111 8.0323C9.13369 8.06689 8.99776 8.04968 8.88298 7.98442L6.85491 6.81355C6.74008 6.74724 6.65628 6.63803 6.62196 6.50995C6.58764 6.38186 6.60561 6.24539 6.67191 6.13055ZM5.17316 11.4609C5.17316 11.3283 5.22584 11.2011 5.31961 11.1074C5.41338 11.0136 5.54056 10.9609 5.67316 10.9609H8.01491C8.2911 10.9609 8.51491 11.1848 8.51491 11.4609C8.51491 11.737 8.2911 11.9609 8.01491 11.9609H5.67316C5.54056 11.9609 5.41338 11.9082 5.31961 11.8145C5.22584 11.7207 5.17316 11.5935 5.17316 11.4609ZM19.4773 4.6063L20.6482 2.57823C20.681 2.52136 20.7247 2.47151 20.7768 2.43153C20.8289 2.39155 20.8883 2.36223 20.9517 2.34523C21.0152 2.32824 21.0813 2.32391 21.1464 2.33249C21.2115 2.34107 21.2743 2.36239 21.3312 2.39523C21.388 2.42806 21.4379 2.47177 21.4778 2.52386C21.5178 2.57595 21.5471 2.6354 21.5641 2.69882C21.5811 2.76224 21.5855 2.82839 21.5769 2.89349C21.5684 2.95859 21.5471 3.02137 21.5142 3.07823L20.3433 5.1063C20.3105 5.16318 20.2668 5.21304 20.2147 5.25302C20.1626 5.293 20.1031 5.32233 20.0397 5.33933C19.9762 5.35632 19.9101 5.36065 19.845 5.35207C19.7799 5.34348 19.7171 5.32215 19.6602 5.2893C19.5454 5.22298 19.4616 5.11377 19.4273 4.98568C19.393 4.8576 19.411 4.72113 19.4773 4.6063ZM22.304 8.02936C22.2377 7.91452 22.2198 7.77805 22.2541 7.64996C22.2884 7.52187 22.3722 7.41267 22.487 7.34636L24.5151 6.17548C24.6299 6.11023 24.7658 6.09302 24.8932 6.12761C25.0207 6.1622 25.1292 6.24579 25.1952 6.36014C25.2613 6.47448 25.2794 6.6103 25.2456 6.73794C25.2119 6.86559 25.129 6.97471 25.0151 7.04148L22.987 8.21236C22.9302 8.24522 22.8674 8.26656 22.8023 8.27514C22.7372 8.28373 22.671 8.2794 22.6076 8.26241C22.5442 8.24541 22.4847 8.21608 22.4326 8.1761C22.3805 8.13611 22.3368 8.08625 22.304 8.02936ZM23.7235 11.2241H26.0652C26.3414 11.2241 26.5652 11.448 26.5652 11.7241C26.5652 12.0002 26.3414 12.2241 26.0652 12.2241H23.7235C23.5909 12.2241 23.4637 12.1714 23.3699 12.0777C23.2762 11.9839 23.2235 11.8567 23.2235 11.7241C23.2235 11.5915 23.2762 11.4643 23.3699 11.3706C23.4637 11.2768 23.5909 11.2241 23.7235 11.2241Z" fill="black"/>
</g>
<defs>
<clipPath id="clip0_2_2055">
<rect width="32" height="32" fill="white" transform="translate(0 0.865234)"/>
</clipPath>
</defs>
</svg>
