<svg width="40" height="41" viewBox="0 0 40 41" fill="none" xmlns="http://www.w3.org/2000/svg">
<path fill-rule="evenodd" clip-rule="evenodd" d="M4.57557 24.5178C4.9538 26.1054 5.58279 27.6227 6.43885 29.0122L5.14174 31.9327L8.58385 35.3749L11.5035 34.0782C12.8934 34.9345 14.411 35.5636 15.9991 35.9418L17.146 38.9214H22.0138L23.161 35.9411C24.7487 35.5628 26.2659 34.9338 27.6554 34.0778L30.576 35.3749L34.0181 31.9329L32.7426 29.061H32.5167C32.3728 29.061 32.2306 29.0481 32.0912 29.0229L30.7356 29.2487C28.8803 29.5578 26.862 29.8614 25.0187 29.3376C24.6996 29.247 24.3878 29.1325 24.0858 28.9953C22.7531 29.742 21.2164 30.1682 19.5799 30.1682C14.481 30.1682 10.3484 26.0356 10.3484 20.9368C10.3484 15.8378 14.481 11.7052 19.5799 11.7052C21.1931 11.7052 22.7094 12.1193 24.0288 12.8464C25.1173 12.0193 26.1181 11.0987 26.1181 9.61941V6.96465C25.1701 6.52033 24.1792 6.17425 23.1607 5.93184L22.0139 2.95215H17.146L15.999 5.9323C14.4112 6.31042 12.8939 6.93941 11.5042 7.79559L8.58401 6.49871L5.14182 9.94082L6.43893 12.8614C5.58287 14.2509 4.95388 15.7681 4.57565 17.3558L1.59534 18.503V23.3708L4.57557 24.5178ZM22.1728 26.5956H18.4313V15.278H22.1728V26.5956ZM30.0981 15.8787C30.0981 17.447 31.1664 17.5416 28.3838 19.1396C28.2441 19.2236 28.1429 19.359 28.1019 19.5167C28.061 19.6744 28.0835 19.8419 28.1647 19.9832C28.2459 20.1245 28.3793 20.2284 28.5362 20.2724C28.6931 20.3164 28.861 20.2972 29.0038 20.2188C29.1371 20.1423 29.2683 20.0623 29.3974 19.979C29.4967 20.4321 29.724 20.847 30.0524 21.1746C30.2139 21.3362 30.3974 21.4743 30.5974 21.5848C30.2745 22.0061 30.0997 22.5222 30.1004 23.053C30.1005 23.7396 30.3888 24.3865 30.8974 24.8467C30.6462 25.073 30.4454 25.3497 30.3082 25.6586C30.1709 25.9676 30.1001 26.302 30.1005 26.6401C30.0998 27.1318 30.2497 27.6119 30.5299 28.0159C28.4338 28.3651 26.8142 28.5486 25.3602 28.1354C24.6892 27.9447 24.0536 27.6271 23.4228 27.14V14.8205C23.9984 14.4119 24.592 14.0059 25.1383 13.5654C26.3737 12.5695 27.3678 11.3972 27.3678 9.61957V6.18371C29.6266 6.18371 31.4888 8.02973 31.4888 10.304V12.9692C31.3841 13.7282 31.2633 13.7147 30.808 14.17C30.37 14.6082 30.0981 15.2129 30.0981 15.8787ZM36.4781 17.0472H32.5166C31.8751 17.0472 31.3481 16.5202 31.3481 15.8786C31.3481 15.2389 31.8766 14.7077 32.5166 14.7077L36.4783 14.7078C37.1166 14.7078 37.6492 15.2403 37.6492 15.8786C37.6492 16.5204 37.1192 17.0472 36.4781 17.0472ZM37.2338 20.6368C35.4095 20.6368 33.5853 20.6344 31.761 20.6344C31.1196 20.6344 30.5924 20.1074 30.5924 19.4659C30.5924 18.8244 31.1196 18.2972 31.761 18.2972C33.5853 18.2972 35.4095 18.2948 37.2338 18.2948C37.874 18.2949 38.4048 18.8262 38.4048 19.466C38.4048 20.1043 37.8721 20.6368 37.2338 20.6368ZM35.9752 24.2216C34.8224 24.2216 33.6707 24.2204 32.5167 24.224C31.8767 24.224 31.3456 23.6929 31.3456 23.0529C31.3456 22.4129 31.877 21.8844 32.5167 21.8844H35.9752C36.6167 21.8844 37.1437 22.4114 37.1437 23.0529C37.1437 23.6944 36.6167 24.2216 35.9752 24.2216ZM32.5166 27.8111C31.8782 27.8111 31.3456 27.2783 31.3456 26.64C31.3456 26.025 31.8419 25.5036 32.455 25.4707C33.2568 25.4907 34.0973 25.4708 34.9054 25.4715C35.547 25.4715 36.0763 25.9988 36.0763 26.6403C36.0763 27.2801 35.5452 27.8111 34.9054 27.8111H32.5166ZM32.7388 12.8211V10.3041C32.7388 9.58848 32.5956 8.89293 32.3289 8.25176L34.018 9.9409L32.7388 12.8211Z" fill="url(#paint0_linear_2_2640)"/>
<defs>
<linearGradient id="paint0_linear_2_2640" x1="20.0001" y1="20.9368" x2="18.4119" y2="51.0429" gradientUnits="userSpaceOnUse">
<stop stop-color="#966C9E"/>
<stop offset="1" stop-color="#F3B880"/>
</linearGradient>
</defs>
</svg>
