<svg width="32" height="33" viewBox="0 0 32 33" fill="none" xmlns="http://www.w3.org/2000/svg">
<path fill-rule="evenodd" clip-rule="evenodd" d="M15.8963 13.8278C16.0887 13.8273 16.2793 13.8651 16.4569 13.9391C16.6345 14.0131 16.7955 14.1217 16.9306 14.2587L15.895 15.2283L15.5495 14.8773C15.5118 14.8385 15.4668 14.8075 15.4171 14.7861C15.3674 14.7647 15.3139 14.7533 15.2597 14.7527C15.2056 14.752 15.1519 14.7621 15.1016 14.7823C15.0514 14.8025 15.0057 14.8324 14.9671 14.8704C14.8048 15.0302 14.802 15.2908 14.9612 15.4507L15.5884 16.0936C15.7453 16.2554 16 16.2599 16.1643 16.1075L17.3278 15.0163C17.4979 15.9023 16.811 16.74 15.8964 16.74C15.0936 16.74 14.4403 16.0867 14.4403 15.2839C14.4402 14.4812 15.0935 13.8278 15.8963 13.8278ZM15.8963 17.5637C17.5331 17.5637 18.6309 15.8838 17.9939 14.3908L18.5082 13.9077C18.674 13.7513 18.6827 13.4907 18.527 13.3274C18.3717 13.1606 18.111 13.1502 17.9452 13.3065L17.5306 13.6958C17.1161 13.2683 16.5367 13.0042 15.8963 13.0042C14.6396 13.0042 13.6172 14.0259 13.6172 15.2839C13.6172 16.5385 14.6397 17.5637 15.8963 17.5637ZM15.8963 8.63234C16.3005 8.63234 16.6665 8.79913 16.9306 9.06671L15.895 10.0363L15.5495 9.68534C15.5118 9.64647 15.4668 9.61545 15.4171 9.59406C15.3674 9.57266 15.3139 9.56131 15.2597 9.56066C15.2056 9.56001 15.1519 9.57008 15.1016 9.59028C15.0514 9.61048 15.0057 9.64041 14.9671 9.67836C14.8048 9.83471 14.802 10.0954 14.9612 10.2587L15.5884 10.9017C15.7418 11.0565 16.0007 11.0674 16.1643 10.9121L17.3278 9.82089C17.4981 10.7081 16.8121 11.5481 15.8964 11.5481C15.0936 11.5481 14.4403 10.8947 14.4403 10.0885C14.4402 9.28572 15.0935 8.63234 15.8963 8.63234ZM15.8963 12.3682C17.5448 12.3682 18.6304 10.6719 17.9939 9.19881L18.5082 8.71574C18.5879 8.64069 18.6347 8.53712 18.6382 8.4277C18.6417 8.31829 18.6017 8.21194 18.527 8.13193C18.3717 7.9686 18.111 7.95817 17.9452 8.11452L17.5306 8.50377C17.1164 8.07631 16.5367 7.80873 15.8963 7.80873C14.6396 7.80873 13.6172 8.83388 13.6172 10.0885C13.6172 11.3465 14.6397 12.3682 15.8963 12.3682ZM15.8963 21.932C15.0935 21.932 14.4402 21.2787 14.4402 20.4759C14.4402 19.6731 15.0935 19.0197 15.8963 19.0197C16.3005 19.0197 16.6665 19.1865 16.9306 19.4506L15.895 20.4237L15.5495 20.0692C15.3904 19.9059 15.1298 19.9059 14.9671 20.0622C14.8891 20.139 14.8447 20.2435 14.8436 20.3529C14.8425 20.4623 14.8847 20.5677 14.9612 20.646L15.5884 21.2855C15.7455 21.4471 15.9998 21.4519 16.1643 21.2994L17.3278 20.2082C17.4979 21.0945 16.8107 21.932 15.8963 21.932ZM18.1764 20.4759C18.1764 20.1597 18.1111 19.8574 17.9939 19.5828L18.5082 19.0997C18.674 18.9468 18.6827 18.6862 18.527 18.5194C18.3717 18.3526 18.111 18.3456 17.9452 18.4985L17.5306 18.8878C17.1161 18.4638 16.5367 18.1962 15.8963 18.1962C14.6396 18.1962 13.6172 19.2179 13.6172 20.4759C13.6172 21.734 14.6396 22.7557 15.8963 22.7557C17.154 22.7557 18.1764 21.7339 18.1764 20.4759ZM6.74293 29.6261C7.87452 29.2711 9.04041 28.8743 10.1473 28.5071C10.297 28.4585 10.4048 28.3264 10.425 28.17C10.5089 27.5215 11.3094 27.2649 11.7594 27.7391C12.003 27.9957 12.2899 27.7861 12.4718 27.7738C12.9552 27.7773 13.4004 28.0623 13.6089 28.5002C13.7831 28.8659 14.3303 28.7894 14.3881 28.382L14.9309 24.5419C15.6762 24.5783 16.3263 24.5782 17.072 24.5419L17.6155 28.382C17.6725 28.7891 18.2201 28.866 18.3946 28.5002C18.6004 28.0693 19.0379 27.7843 19.5147 27.7738C19.5658 27.7843 19.7156 27.826 20.1444 27.9685C20.315 28.0241 20.5024 27.965 20.6069 27.819C21.0455 27.205 22.0348 27.5227 22.013 28.2951C22.0105 28.3832 22.0366 28.4698 22.0874 28.5418C22.1382 28.6139 22.211 28.6675 22.2949 28.6947C22.3957 28.7295 22.4562 28.7504 22.4902 28.7573L25.4893 29.6261H6.74293V29.6261ZM13.6138 23.5966C15.1994 23.7982 16.8042 23.7982 18.3898 23.5966C18.7585 23.5514 19.0351 23.2943 19.1116 22.9294C19.6829 20.1979 20.9705 13.6089 20.5913 11.3987C20.3877 10.2119 19.8102 9.50978 19.1783 8.55247C18.2174 7.10678 17.1498 5.68886 16.0016 4.32662C14.8531 5.68892 13.7862 7.10678 12.8246 8.55247C12.1934 9.51228 11.6167 10.2083 11.4122 11.3987C11.0324 13.6089 12.3207 20.1979 12.892 22.9294C12.9685 23.2943 13.2451 23.5514 13.6138 23.5966ZM10.0652 24.7365L12.0635 22.9885C11.8345 21.8903 11.5655 20.5385 11.3163 19.1275L9.56482 19.7948C9.22146 19.9268 9.02652 20.184 9.05673 20.4655C9.23951 22.1683 9.52207 23.3812 10.0652 24.7365ZM22.438 19.7948L20.6866 19.1275C20.4381 20.5385 20.1691 21.8903 19.9397 22.9885L21.938 24.7365C22.4809 23.3812 22.7634 22.1683 22.9468 20.4655C22.977 20.184 22.7821 19.9268 22.438 19.7948ZM28.511 29.64L22.8134 27.9962C22.6012 26.7504 21.0741 26.2346 20.1451 27.1031C19.6642 26.9502 19.6138 26.9502 19.5477 26.9502C19.0928 26.9502 18.6577 27.0997 18.3025 27.3603L17.8953 24.4793C18.0944 24.462 18.2938 24.4377 18.493 24.4133C18.9472 24.3577 19.3382 24.1283 19.6009 23.7877L21.8261 25.7338C22.032 25.9136 22.363 25.8451 22.4742 25.5879C23.1991 23.9267 23.5494 22.561 23.7656 20.5523C23.8365 19.892 23.4309 19.2942 22.7321 19.0266L20.8293 18.3003C21.2974 15.5063 21.6415 12.6531 21.4024 11.2595C21.1704 9.90646 20.5411 9.11663 19.8639 8.09711C18.7973 6.49506 17.6033 4.92079 16.3136 3.42294C16.1499 3.2333 15.8537 3.23311 15.6898 3.42294C14.4002 4.92079 13.2061 6.495 12.1388 8.09711C11.4626 9.11919 10.8337 9.90262 10.601 11.2595C10.3619 12.6531 10.706 15.5063 11.1741 18.3003L9.27138 19.0266C8.5725 19.2942 8.16693 19.892 8.23785 20.5523C8.45397 22.561 8.80431 23.9267 9.52924 25.5879C9.64041 25.845 9.97135 25.9138 10.1774 25.7338L12.4018 23.7877C12.6652 24.1283 13.0555 24.3577 13.5104 24.4133C13.7092 24.4376 13.9083 24.4619 14.1082 24.4793L13.7009 27.3603C13.3457 27.0997 12.9106 26.9502 12.4557 26.9502C12.3952 26.9502 12.3205 26.9572 12.1648 26.9989C11.2828 26.325 9.98575 26.7416 9.66473 27.8016C7.54031 28.5106 4.63471 29.4836 3.55113 29.6296C3.33673 29.6574 3.18133 29.8485 3.19631 30.064C3.2109 30.2794 3.39055 30.4497 3.60674 30.4497H28.3965C28.8644 30.4498 28.9697 29.7778 28.511 29.64Z" fill="#13172F"/>
</svg>
