<svg width="40" height="41" viewBox="0 0 40 41" fill="none" xmlns="http://www.w3.org/2000/svg">
<path d="M30.9939 15.281C32.068 17.2219 32.6807 19.4523 32.6807 21.8232C32.6807 29.2978 26.5998 35.3787 19.1252 35.3787C11.6507 35.3787 5.56984 29.2978 5.56984 21.8233C5.56984 14.3489 11.6507 8.26793 19.1252 8.26793C21.4366 8.26793 23.6145 8.85004 25.5206 9.87441L28.312 7.08301C25.5828 5.37481 22.4245 4.45996 19.1252 4.45996C14.4873 4.45996 10.1269 6.26605 6.84734 9.54559C3.56781 12.8251 1.76172 17.1854 1.76172 21.8234C1.76172 26.4613 3.56781 30.8217 6.84734 34.1011C10.127 37.3807 14.4873 39.1868 19.1252 39.1868C23.763 39.1868 28.1234 37.3807 31.4029 34.1011C34.6825 30.8216 36.4886 26.4613 36.4886 21.8234C36.4886 18.4679 35.5427 15.2579 33.7777 12.4971L30.9939 15.281Z" fill="url(#paint0_linear_2_2624)"/>
<path d="M20.4533 18.6146C19.2034 18.1025 17.7078 18.3486 16.6941 19.3624C15.3416 20.7149 15.3416 22.8966 16.6941 24.2386C18.046 25.5906 20.2277 25.5906 21.5696 24.2386C22.584 23.2241 22.8295 21.7287 22.3173 20.4794L32.2227 10.5741L33.8723 10.7891L38.2356 6.42519L34.9376 5.98512L34.4969 2.68652L30.133 7.06043L30.3485 8.70949L20.4533 18.6146Z" fill="url(#paint1_linear_2_2624)"/>
<path d="M25.586 20.6905C25.6514 21.0645 25.6843 21.4435 25.6842 21.8232C25.6842 25.4389 22.7427 28.3805 19.127 28.3805C15.5113 28.3805 12.5697 25.439 12.5697 21.8232C12.5697 18.2076 15.5112 15.2661 19.127 15.2661C19.4449 15.2661 19.7575 15.2893 20.0635 15.3332L23.133 12.2637C21.8999 11.745 20.5464 11.458 19.127 11.458C13.4116 11.458 8.76172 16.1079 8.76172 21.8232C8.76172 27.5386 13.4116 32.1886 19.127 32.1886C24.8423 32.1886 29.4923 27.5386 29.4923 21.8232C29.4923 20.3427 29.1795 18.934 28.6178 17.6587L25.586 20.6905Z" fill="url(#paint2_linear_2_2624)"/>
<defs>
<linearGradient id="paint0_linear_2_2624" x1="19.1252" y1="21.8234" x2="17.5562" y2="50.8859" gradientUnits="userSpaceOnUse">
<stop stop-color="#966C9E"/>
<stop offset="1" stop-color="#F3B880"/>
</linearGradient>
<linearGradient id="paint1_linear_2_2624" x1="26.9577" y1="13.9696" x2="25.9377" y2="32.8548" gradientUnits="userSpaceOnUse">
<stop stop-color="#966C9E"/>
<stop offset="1" stop-color="#F3B880"/>
</linearGradient>
<linearGradient id="paint2_linear_2_2624" x1="19.127" y1="21.8233" x2="18.1904" y2="39.1724" gradientUnits="userSpaceOnUse">
<stop stop-color="#966C9E"/>
<stop offset="1" stop-color="#F3B880"/>
</linearGradient>
</defs>
</svg>
