<svg width="32" height="32" viewBox="0 0 32 32" fill="none" xmlns="http://www.w3.org/2000/svg">
<g clip-path="url(#clip0_2_2025)">
<path d="M28.1608 4.87264C28.796 4.87264 29.3099 4.35871 29.3099 3.72355C29.3099 3.0884 28.796 2.57446 28.1608 2.57446C27.5257 2.57446 27.0117 3.0884 27.0117 3.72355C27.0117 4.35871 27.5305 4.87264 28.1608 4.87264ZM28.1608 3.39386C28.3451 3.39386 28.4954 3.54416 28.4954 3.7284C28.4954 3.91264 28.3451 4.06295 28.1608 4.06295C27.9717 4.06295 27.8263 3.91749 27.8263 3.7284C27.8263 3.53931 27.9766 3.39386 28.1608 3.39386Z" fill="#13172F"/>
<path d="M29.4369 0.717529H5.81508C4.91811 0.717529 4.18599 1.44965 4.18599 2.34662V4.83389H2.56659C1.66962 4.83389 0.9375 5.56601 0.9375 6.46298V26.8897C0.9375 27.7866 1.66962 28.5187 2.56659 28.5187H13.3933V30.8751C13.3933 31.0981 13.5775 31.2824 13.8005 31.2824H21.4514C21.6745 31.2824 21.8587 31.0981 21.8587 30.8751V28.5187H26.1884C27.0854 28.5187 27.8175 27.7866 27.8175 26.8897V24.4024H29.4369C30.3339 24.4024 31.066 23.6703 31.066 22.7733V2.34662C31.066 1.44965 30.3339 0.717529 29.4369 0.717529ZM5.00053 2.34662C5.00053 1.89571 5.36902 1.53207 5.81508 1.53207H29.4369C29.8878 1.53207 30.2514 1.90056 30.2514 2.34662V5.91995H14.7945L12.9763 4.03389C12.8357 3.88844 12.6417 3.80601 12.443 3.80601H8.43811C8.03083 3.80601 7.69629 4.14056 7.69629 4.54783V5.91995H5.00053V2.34662ZM2.56659 27.709C2.11568 27.709 1.75205 27.3406 1.75205 26.8945V6.46298C1.75205 6.01207 2.12053 5.64844 2.56659 5.64844H4.18599V22.7781C4.18599 23.6751 4.91811 24.4072 5.81508 24.4072H14.6587C14.8187 24.7175 14.8914 25.0666 14.8623 25.4254H14.232C13.7666 25.4254 13.3933 25.8036 13.3933 26.2642V27.709H2.56659ZM17.2236 19.1806C17.306 19.0351 17.4563 18.943 17.626 18.943C17.8781 18.943 18.0817 19.1466 18.0817 19.3987C18.0817 19.5636 17.9945 19.7139 17.8539 19.7963C17.6987 19.8884 17.5145 19.8787 17.3254 19.7721C17.3004 19.7592 17.2801 19.7389 17.2672 19.7139C17.112 19.4666 17.1751 19.2727 17.2236 19.1806ZM17.2187 18.206C16.9199 18.3054 16.6691 18.5129 16.5157 18.7878C16.283 19.2048 16.312 19.7139 16.5836 20.1503C16.6708 20.286 16.7872 20.3975 16.9278 20.48C17.1508 20.606 17.3933 20.6739 17.6308 20.6739C17.8539 20.6739 18.072 20.6157 18.266 20.5042C18.6539 20.2763 18.8963 19.8545 18.8963 19.4036C18.8963 18.846 18.5327 18.3757 18.0333 18.206V16.1115L21.6357 22.6133C21.6308 22.6181 21.626 22.6278 21.6114 22.6327C20.3363 22.9624 19.5023 24.1551 19.5702 25.4254H15.6866C15.7593 24.1503 14.9205 22.9575 13.6211 22.5939L17.2187 16.1115V18.206ZM21.0442 30.4678H14.2078L14.232 26.2351H21.0199C21.0345 26.2351 21.0442 26.2448 21.0442 26.2593V30.4678ZM27.003 26.8897C27.003 27.3406 26.6345 27.7042 26.1884 27.7042H21.8587V26.2593C21.8587 25.7939 21.4805 25.4206 21.0199 25.4206H20.3896C20.3605 25.0618 20.4381 24.7127 20.5933 24.4024H27.003V26.8897ZM29.4369 23.5927H21.3836C21.5145 23.52 21.6551 23.4569 21.8102 23.4181C22.0672 23.3503 22.2757 23.1709 22.3823 22.9284C22.4842 22.6909 22.4696 22.4242 22.3436 22.1963L18.1739 14.686C18.0672 14.4872 17.8587 14.3612 17.6308 14.3612C17.3981 14.366 17.1896 14.4824 17.0781 14.6812L12.9036 22.1963C12.7775 22.4242 12.7678 22.6957 12.8696 22.9333C12.9714 23.1757 13.1799 23.3503 13.4369 23.4181C13.592 23.4569 13.7278 23.52 13.8636 23.5927H5.81508C5.36417 23.5927 5.00053 23.2242 5.00053 22.7781V6.7345H7.76417C8.17144 6.7345 8.50599 6.39995 8.50599 5.99268V4.62056H12.409L14.2272 6.50662C14.3678 6.65208 14.5617 6.7345 14.7605 6.7345H30.2514V22.7733C30.2514 23.2242 29.8878 23.5927 29.4369 23.5927Z" fill="#13172F"/>
<path d="M25.3867 4.87264C26.0218 4.87264 26.5358 4.35871 26.5358 3.72355C26.5358 3.0884 26.0218 2.57446 25.3867 2.57446C24.7515 2.57446 24.2376 3.0884 24.2376 3.72355C24.2376 4.35871 24.7515 4.87264 25.3867 4.87264ZM25.3867 3.39386C25.5709 3.39386 25.7212 3.54416 25.7212 3.7284C25.7212 3.91264 25.5709 4.06295 25.3867 4.06295C25.1976 4.06295 25.0521 3.91749 25.0521 3.7284C25.0521 3.53931 25.2024 3.39386 25.3867 3.39386ZM22.6085 4.87264C23.2436 4.87264 23.7576 4.35871 23.7576 3.72355C23.7576 3.0884 23.2436 2.57446 22.6085 2.57446C21.9733 2.57446 21.4594 3.0884 21.4594 3.72355C21.4594 4.35871 21.9733 4.87264 22.6085 4.87264ZM22.6085 3.39386C22.7927 3.39386 22.943 3.54416 22.943 3.7284C22.943 3.91264 22.7927 4.06295 22.6085 4.06295C22.4194 4.06295 22.2739 3.91749 22.2739 3.7284C22.2739 3.53931 22.4242 3.39386 22.6085 3.39386ZM25.4739 10.2836C25.2364 10.5211 25.0861 10.8217 25.0279 11.1417H19.3309V10.5017C19.3309 10.0654 18.977 9.71143 18.5406 9.71143H16.703C16.2667 9.71143 15.9127 10.0654 15.9127 10.5017V11.1417H10.2206C10.1673 10.8266 10.017 10.526 9.77455 10.2787C9.15879 9.67265 8.10667 9.68234 7.50546 10.2836C7.2 10.589 7.03516 10.9914 7.03516 11.4181C7.03516 11.8496 7.20485 12.2569 7.50546 12.5526C7.81091 12.8678 8.21819 13.0278 8.64 13.0278C8.90667 13.0278 9.17819 12.9648 9.43516 12.8339C9.71521 12.6904 9.94016 12.4587 10.0752 12.1745C10.1091 12.1017 10.1382 12.029 10.1624 11.9563H14.1139C11.9661 13.0036 10.3467 14.972 9.78425 17.3478H9.15394C8.71758 17.3478 8.36364 17.7017 8.36364 18.1381V19.9757C8.36364 20.412 8.71758 20.766 9.15394 20.766H10.9915C11.4279 20.766 11.7818 20.412 11.7818 19.9757V18.1381C11.7818 17.7017 11.4279 17.3478 10.9915 17.3478H10.623C11.3018 14.7878 13.3527 12.7805 15.9273 12.1599V12.3345C15.9273 12.7708 16.2812 13.1248 16.7176 13.1248H18.5552C18.9915 13.1248 19.3455 12.7708 19.3455 12.3345V12.1599C21.9152 12.7805 23.9661 14.7878 24.6497 17.3478H24.3152C23.8788 17.3478 23.5249 17.7017 23.5249 18.1381V19.9757C23.5249 20.412 23.8788 20.766 24.3152 20.766H26.1527C26.5891 20.766 26.943 20.412 26.943 19.9757V18.1381C26.943 17.7017 26.5891 17.3478 26.1527 17.3478H25.4885C24.9212 14.972 23.3018 12.9987 21.1588 11.9563H25.12C25.1976 12.1793 25.3236 12.3829 25.4933 12.5526C25.7988 12.8678 26.2061 13.0278 26.6279 13.0278C26.8945 13.0278 27.1661 12.9648 27.423 12.8339C27.7031 12.6904 27.928 12.4587 28.063 12.1745C28.3782 11.5102 28.2667 10.7878 27.7673 10.2787C27.1321 9.67749 26.08 9.68234 25.4739 10.2836ZM9.33334 11.8302C9.27516 11.9466 9.17819 12.0484 9.06182 12.1066C8.64 12.3199 8.27637 12.1842 8.07758 11.9757C7.92728 11.8302 7.84485 11.6314 7.84485 11.4181C7.84485 11.2096 7.92728 11.0108 8.07758 10.8557C8.22788 10.7054 8.42667 10.6229 8.64 10.6229C8.84849 10.6229 9.05213 10.7054 9.19758 10.8508C9.4497 11.1126 9.49819 11.4763 9.33334 11.8302ZM10.9818 19.9514L9.16849 19.9757L9.14425 18.1623H10.9576L10.9818 19.9514ZM26.1382 19.9514L24.3249 19.9757L24.3006 18.1623H26.1139L26.1382 19.9514ZM16.7321 12.3393L16.7224 11.7284C16.7321 11.6848 16.7321 11.6411 16.7273 11.5926V11.5878C16.7273 11.5733 16.737 11.5636 16.737 11.549C16.737 11.5248 16.7273 11.5054 16.7224 11.486L16.7079 10.5308H18.5212L18.5358 11.486C18.5309 11.5102 18.5212 11.5296 18.5212 11.5539C18.5212 11.5684 18.5261 11.5781 18.5309 11.5926V11.5975C18.5212 11.6605 18.5261 11.7187 18.5406 11.772L18.5503 12.3199L16.7321 12.3393ZM27.3067 11.8302C27.2485 11.9466 27.1515 12.0484 27.0352 12.1066C26.6133 12.3199 26.2497 12.1842 26.0509 11.9757C25.9006 11.8302 25.8182 11.6314 25.8182 11.4181C25.8182 11.2096 25.9006 11.0108 26.0509 10.8557C26.2012 10.7054 26.4 10.6229 26.6133 10.6229C26.8218 10.6229 27.0255 10.7054 27.1709 10.8508C27.423 11.1126 27.4715 11.4763 27.3067 11.8302Z" fill="#13172F"/>
</g>
<defs>
<clipPath id="clip0_2_2025">
<rect width="32" height="32" fill="white"/>
</clipPath>
</defs>
</svg>
