<svg width="32" height="33" viewBox="0 0 32 33" fill="none" xmlns="http://www.w3.org/2000/svg">
<g clip-path="url(#clip0_2_2010)">
<path d="M29.0904 25.9805H2.90862C1.55104 25.9805 0.484375 24.9138 0.484375 23.5562V8.57439C0.484375 7.21681 1.55104 6.15015 2.90862 6.15015H3.10256C3.39347 6.15015 3.58741 6.34409 3.58741 6.635C3.58741 6.9259 3.39347 7.11984 3.10256 7.11984H2.90862C2.08438 7.11984 1.45407 7.75015 1.45407 8.57439V23.5562C1.45407 24.3805 2.08438 25.0108 2.90862 25.0108H29.0904C29.9147 25.0108 30.545 24.3805 30.545 23.5562V8.57439C30.545 7.75015 29.9147 7.11984 29.0904 7.11984H14.1571C13.8662 7.11984 13.6723 6.9259 13.6723 6.635C13.6723 6.34409 13.8662 6.15015 14.1571 6.15015H29.0904C30.448 6.15015 31.5147 7.21681 31.5147 8.57439V23.5562C31.5147 24.9138 30.448 25.9805 29.0904 25.9805Z" fill="#13172F"/>
<path d="M31.0298 23.0228H0.969223C0.678314 23.0228 0.484375 22.8289 0.484375 22.5379C0.484375 22.247 0.678314 22.0531 0.969223 22.0531H31.0298C31.3207 22.0531 31.5147 22.247 31.5147 22.5379C31.5147 22.8289 31.3207 23.0228 31.0298 23.0228ZM19.345 29.1319H12.6541C12.3632 29.1319 12.1692 28.9379 12.1692 28.647V25.4955C12.1692 25.2046 12.3632 25.0107 12.6541 25.0107H19.345C19.6359 25.0107 19.8298 25.2046 19.8298 25.4955V28.647C19.8298 28.9379 19.6359 29.1319 19.345 29.1319ZM13.1389 28.1622H18.8601V25.9804H13.1389V28.1622Z" fill="#13172F"/>
<path d="M21.428 32.3319H10.5674C9.88858 32.3319 9.35524 31.7986 9.35524 31.1198V29.3744C9.35524 28.6956 9.88858 28.1622 10.5674 28.1622H21.428C22.1068 28.1622 22.6401 28.6956 22.6401 29.3744V31.1198C22.6401 31.7986 22.1068 32.3319 21.428 32.3319ZM10.5674 29.1319C10.4704 29.1319 10.3249 29.2774 10.3249 29.3744V31.1198C10.3249 31.2168 10.3734 31.3622 10.5674 31.3622H21.428C21.5249 31.3622 21.6704 31.3138 21.6704 31.1198V29.3744C21.6704 29.2774 21.6219 29.1319 21.428 29.1319H10.5674ZM16.7249 24.5259H15.2704C14.9795 24.5259 14.7855 24.3319 14.7855 24.041C14.7855 23.7501 14.9795 23.5562 15.2704 23.5562H16.7249C17.0159 23.5562 17.2098 23.7501 17.2098 24.041C17.2098 24.3319 17.0159 24.5259 16.7249 24.5259ZM8.62797 13.2289C8.14312 13.2289 7.70676 13.1804 7.2704 13.0835C7.02797 13.035 6.88252 12.7925 6.931 12.5501C7.02797 12.0168 6.88252 11.7259 6.73706 11.6289C6.64009 11.5804 6.34918 11.7259 6.05827 12.1138C5.91282 12.3077 5.62191 12.3562 5.42797 12.2592C4.7007 11.7744 4.11888 11.1441 3.68252 10.4168C3.53706 10.2228 3.63403 9.93194 3.82797 9.78648C4.26434 9.44709 4.3613 9.15618 4.3613 9.05921C4.31282 8.96224 4.02191 8.81679 3.48858 8.81679C3.24615 8.81679 3.00373 8.67133 2.95524 8.42891C2.80979 7.55618 2.80979 6.68345 3.00373 5.90769C3.05221 5.66527 3.29464 5.51982 3.53706 5.5683C3.97343 5.5683 4.31282 5.42285 4.3613 5.32588C4.40979 5.22891 4.26434 4.88951 3.87646 4.5986C3.68252 4.45315 3.63403 4.16224 3.77949 3.9683C4.26434 3.24103 4.89464 2.65921 5.62191 2.22285C5.81585 2.07739 6.10676 2.17436 6.25221 2.3683C6.54312 2.80466 6.88252 2.90163 6.97949 2.90163C7.07646 2.80466 7.2704 2.46527 7.22191 1.93194C7.22191 1.68951 7.36737 1.44709 7.60979 1.3986C8.48252 1.25315 9.35524 1.25315 10.131 1.44709C10.3734 1.49557 10.5189 1.738 10.4704 1.98042C10.3734 2.51376 10.5189 2.80466 10.6643 2.90163C10.7613 2.95012 11.0522 2.80466 11.3431 2.41679C11.4886 2.22285 11.7795 2.17436 11.9734 2.27133C12.7007 2.75618 13.2825 3.38648 13.7189 4.11376C13.8643 4.30769 13.7674 4.5986 13.5734 4.74406C13.1371 5.08345 13.0401 5.37436 13.0401 5.47133C13.0886 5.5683 13.3795 5.71376 13.8643 5.66527C14.1068 5.61679 14.3492 5.81073 14.3977 6.05315C14.5431 6.92588 14.5431 7.7986 14.3492 8.57436C14.3007 8.81679 14.0583 8.96224 13.8159 8.91376C13.2825 8.81679 12.9916 8.96224 12.8946 9.1077C12.7977 9.35012 13.0886 9.68951 13.3795 9.88345C13.5734 10.0289 13.6219 10.3198 13.5249 10.5138C13.0401 11.241 12.4098 11.8228 11.6825 12.2592C11.4886 12.4047 11.1977 12.3077 11.0522 12.1138C10.8098 11.7259 10.4704 11.5319 10.2765 11.6289C10.1795 11.6774 10.034 11.9683 10.0825 12.5016C10.0825 12.7441 9.93706 12.9865 9.69464 13.035C9.40373 13.1804 9.01585 13.2289 8.62797 13.2289ZM7.9007 12.2107C8.33706 12.2592 8.77343 12.3077 9.20979 12.2107C9.25828 11.5319 9.59767 10.9986 10.034 10.8047C10.5674 10.6107 11.1492 10.8047 11.634 11.2895C12.0219 11.0471 12.3128 10.7562 12.6037 10.4168C12.1189 9.93194 11.9734 9.30163 12.1674 8.7683C12.4098 8.28345 12.9431 7.99254 13.6219 7.99254C13.6704 7.55618 13.7189 7.11982 13.6704 6.68345C12.9916 6.68345 12.4583 6.34406 12.2643 5.85921C12.0704 5.37436 12.2643 4.79254 12.7492 4.30769C12.5068 3.91982 12.2159 3.62891 11.8765 3.338C11.3916 3.82285 10.7613 4.01679 10.2765 3.77436C9.79161 3.53194 9.54918 2.9986 9.54918 2.31982C9.11282 2.27133 8.67646 2.22285 8.24009 2.31982C8.19161 3.04709 7.9007 3.58042 7.36737 3.77436C6.88252 3.9683 6.3007 3.77436 5.81585 3.28951C5.42797 3.53194 5.13706 3.82285 4.84615 4.16224C5.331 4.64709 5.52494 5.27739 5.28252 5.76224C5.04009 6.24709 4.50676 6.48951 3.82797 6.48951C3.77949 6.92588 3.731 7.36224 3.82797 7.7986C4.50676 7.84709 5.04009 8.138 5.23403 8.62285C5.42797 9.1077 5.23403 9.68951 4.74918 10.1744C4.99161 10.5622 5.28252 10.8531 5.62191 11.1441C6.10676 10.6592 6.73706 10.4653 7.22191 10.7077C7.60979 10.9986 7.9007 11.5319 7.9007 12.2107Z" fill="#13172F"/>
<path d="M8.67831 10.5623C7.81676 10.5623 6.99049 10.22 6.38128 9.61082C5.77208 9.00161 5.42982 8.17534 5.42982 7.31379C5.42982 6.45224 5.77208 5.62598 6.38128 5.01677C6.99049 4.40756 7.81676 4.06531 8.67831 4.06531C9.53986 4.06531 10.3661 4.40756 10.9753 5.01677C11.5845 5.62598 11.9268 6.45224 11.9268 7.31379C11.9268 8.17534 11.5845 9.00161 10.9753 9.61082C10.3661 10.22 9.53986 10.5623 8.67831 10.5623ZM8.67831 5.035C7.4177 5.035 6.39952 6.05319 6.39952 7.31379C6.39952 8.5744 7.4177 9.59258 8.67831 9.59258C9.93892 9.59258 10.9571 8.5744 10.9571 7.31379C10.9571 6.05319 9.93892 5.035 8.67831 5.035ZM27.7329 20.8411H17.5026C16.5329 20.8411 15.8056 20.1138 15.8056 19.1441V10.3683C15.8056 9.39864 16.5329 8.67137 17.5026 8.67137H27.7813C28.751 8.67137 29.4783 9.39864 29.4783 10.3683V19.1926C29.4298 20.1138 28.6541 20.8411 27.7329 20.8411ZM17.5026 9.64107C17.1147 9.64107 16.7753 9.98046 16.7753 10.3683V19.1441C16.7753 19.532 17.1147 19.8714 17.5026 19.8714H27.7329C28.1207 19.8714 28.4601 19.5805 28.5086 19.1441V10.3683C28.5086 9.98046 28.1692 9.64107 27.7813 9.64107H17.5026Z" fill="#13172F"/>
<path d="M28.9441 12.8895H16.2895C15.9986 12.8895 15.8047 12.6956 15.8047 12.4047C15.8047 12.1138 15.9986 11.9198 16.2895 11.9198H28.9441C29.235 11.9198 29.4289 12.1138 29.4289 12.4047C29.4289 12.6956 29.235 12.8895 28.9441 12.8895ZM23.1744 11.2895H17.938C17.6471 11.2895 17.4532 11.0956 17.4532 10.8047C17.4532 10.5138 17.6471 10.3198 17.938 10.3198H23.1744C23.4653 10.3198 23.6592 10.5138 23.6592 10.8047C23.6592 11.0956 23.4653 11.2895 23.1744 11.2895ZM25.2107 11.2895H24.6774C24.3865 11.2895 24.1926 11.0956 24.1926 10.8047C24.1926 10.5138 24.3865 10.3198 24.6774 10.3198H25.2107C25.5017 10.3198 25.6956 10.5138 25.6956 10.8047C25.6956 11.0956 25.5017 11.2895 25.2107 11.2895ZM27.2956 11.2895H26.7623C26.4714 11.2895 26.2774 11.0956 26.2774 10.8047C26.2774 10.5138 26.4714 10.3198 26.7623 10.3198H27.2956C27.5865 10.3198 27.7804 10.5138 27.7804 10.8047C27.7804 11.0956 27.5865 11.2895 27.2956 11.2895ZM20.8471 18.1744C20.7017 18.1744 20.6047 18.1259 20.5077 18.0289L19.1017 16.6229C19.0047 16.5259 18.9562 16.4289 18.9562 16.2835C18.9562 16.138 19.0047 16.041 19.1017 15.9441L20.5562 14.538C20.7501 14.3441 21.0411 14.3441 21.235 14.538C21.4289 14.7319 21.4289 15.0229 21.235 15.2168L20.1198 16.2835L21.1865 17.3501C21.3804 17.5441 21.3804 17.835 21.1865 18.0289C21.0895 18.1259 20.9926 18.1744 20.8471 18.1744ZM24.3865 18.1744C24.2411 18.1744 24.1441 18.1259 24.0471 18.0289C23.8532 17.835 23.8532 17.5441 24.0471 17.3501L25.4532 15.9441C25.6471 15.7501 25.938 15.7501 26.132 15.9441C26.3259 16.138 26.3259 16.4289 26.132 16.6229L24.7259 18.0289C24.6289 18.1259 24.532 18.1744 24.3865 18.1744Z" fill="#13172F"/>
<path d="M25.7935 16.7683C25.6965 16.7683 25.551 16.7198 25.4541 16.6229L23.9995 15.2168C23.8056 15.0229 23.8056 14.7319 23.9995 14.538C24.1935 14.3441 24.4844 14.3441 24.6783 14.538L26.1329 15.9441C26.3268 16.138 26.3268 16.4289 26.1329 16.6229C26.0359 16.7198 25.9389 16.7683 25.7935 16.7683ZM22.1086 18.6592H21.9632C21.7207 18.6107 21.5753 18.3198 21.6238 18.0774L22.642 14.2956C22.6904 14.0532 22.9813 13.9077 23.2238 13.9562C23.4662 14.0047 23.6116 14.2956 23.5632 14.538L22.5935 18.3198C22.4965 18.5138 22.3026 18.6592 22.1086 18.6592ZM12.5571 20.841H4.79952C3.63589 20.841 2.71468 19.9198 2.71468 18.7562C2.71468 17.5926 3.63589 16.6713 4.79952 16.6713H12.5571C13.7207 16.6713 14.6419 17.5926 14.6419 18.7562C14.6419 19.9198 13.7207 20.841 12.5571 20.841ZM4.79952 17.641C4.21771 17.641 3.68437 18.1744 3.68437 18.7562C3.68437 19.338 4.21771 19.8713 4.79952 19.8713H12.5571C13.1389 19.8713 13.6723 19.338 13.6723 18.7562C13.6723 18.1744 13.1389 17.641 12.5571 17.641H4.79952Z" fill="#13172F"/>
<path d="M9.79219 19.2411H5.47704C5.18613 19.2411 4.99219 19.0471 4.99219 18.7562C4.99219 18.4653 5.18613 18.2714 5.47704 18.2714H9.79219C10.0831 18.2714 10.277 18.4653 10.277 18.7562C10.277 19.0471 10.0831 19.2411 9.79219 19.2411Z" fill="#13172F"/>
</g>
<defs>
<clipPath id="clip0_2_2010">
<rect width="32" height="32" fill="white" transform="translate(0 0.865234)"/>
</clipPath>
</defs>
</svg>
